<svg width="52" height="52" viewBox="0 0 52 52" fill="none" xmlns="http://www.w3.org/2000/svg">
<g clip-path="url(#clip0_447_28)">
<path d="M22.9176 47.0723C18.8717 47.0723 14.9046 45.9535 11.4549 43.8395C8.00525 41.7256 5.20733 38.6988 3.37054 35.0939C1.53374 31.489 0.729606 27.4463 1.04704 23.4129C1.36448 19.3795 2.79112 15.5124 5.16924 12.2392C7.54736 8.96598 10.7843 6.41417 14.5222 4.86587C18.2602 3.31757 22.3534 2.8331 26.3495 3.46602C30.3456 4.09893 34.0888 5.82459 37.1654 8.45219C40.2419 11.0798 42.5319 14.507 43.7821 18.3549L41.6957 19.0328C40.5704 15.5697 38.5094 12.4852 35.7406 10.1204C32.9717 7.75554 29.6028 6.20245 26.0063 5.63283C22.4099 5.0632 18.7259 5.49923 15.3618 6.8927C11.9976 8.28616 9.08438 10.5828 6.94408 13.5287C4.80377 16.4746 3.51979 19.9549 3.2341 23.585C2.94841 27.2151 3.67213 30.8535 5.32524 34.0979C6.97837 37.3423 9.49649 40.0664 12.6012 41.969C15.7059 43.8716 19.2763 44.8785 22.9176 44.8785L22.9176 47.0723Z" fill="black"/>
<path d="M28.6794 22.9877C29.2745 22.9877 29.7896 23.0869 30.2247 23.2853C30.6662 23.4836 31.0053 23.7652 31.2421 24.1299C31.4788 24.4946 31.5972 24.9265 31.5972 25.4256C31.5972 25.9183 31.4788 26.3502 31.2421 26.7213C31.0053 27.0861 30.6662 27.3676 30.2247 27.566C29.7896 27.7579 29.2745 27.8539 28.6794 27.8539H27.3261V29.7063H25.7712V22.9877H28.6794ZM28.593 26.587C29.0601 26.587 29.4153 26.4878 29.6584 26.2894C29.9016 26.0847 30.0231 25.7967 30.0231 25.4256C30.0231 25.0481 29.9016 24.7601 29.6584 24.5618C29.4153 24.357 29.0601 24.2547 28.593 24.2547H27.3261V26.587H28.593ZM35.6708 29.8215C34.9733 29.8215 34.3431 29.6711 33.78 29.3704C33.2233 29.0696 32.785 28.6569 32.4651 28.1322C32.1515 27.6011 31.9948 27.0061 31.9948 26.347C31.9948 25.688 32.1515 25.0961 32.4651 24.5714C32.785 24.0403 33.2233 23.6244 33.78 23.3237C34.3431 23.0229 34.9733 22.8725 35.6708 22.8725C36.3682 22.8725 36.9953 23.0229 37.552 23.3237C38.1087 23.6244 38.547 24.0403 38.8669 24.5714C39.1868 25.0961 39.3468 25.688 39.3468 26.347C39.3468 27.0061 39.1868 27.6011 38.8669 28.1322C38.547 28.6569 38.1087 29.0696 37.552 29.3704C36.9953 29.6711 36.3682 29.8215 35.6708 29.8215ZM35.6708 28.497C36.0675 28.497 36.4258 28.4074 36.7458 28.2282C37.0657 28.0427 37.3152 27.7867 37.4944 27.4604C37.68 27.134 37.7727 26.7629 37.7727 26.347C37.7727 25.9311 37.68 25.56 37.4944 25.2336C37.3152 24.9073 37.0657 24.6546 36.7458 24.4754C36.4258 24.2898 36.0675 24.1971 35.6708 24.1971C35.2741 24.1971 34.9158 24.2898 34.5958 24.4754C34.2759 24.6546 34.0231 24.9073 33.8376 25.2336C33.6584 25.56 33.5688 25.9311 33.5688 26.347C33.5688 26.7629 33.6584 27.134 33.8376 27.4604C34.0231 27.7867 34.2759 28.0427 34.5958 28.2282C34.9158 28.4074 35.2741 28.497 35.6708 28.497ZM40.1314 22.9877H43.1836C43.913 22.9877 44.5561 23.1285 45.1128 23.41C45.6759 23.6852 46.111 24.0755 46.4181 24.581C46.7316 25.0865 46.8884 25.6752 46.8884 26.347C46.8884 27.0189 46.7316 27.6075 46.4181 28.113C46.111 28.6185 45.6759 29.012 45.1128 29.2936C44.5561 29.5687 43.913 29.7063 43.1836 29.7063H40.1314V22.9877ZM43.1068 28.4298C43.7787 28.4298 44.313 28.2442 44.7097 27.8731C45.1128 27.4956 45.3143 26.9869 45.3143 26.347C45.3143 25.7071 45.1128 25.2017 44.7097 24.8305C44.313 24.453 43.7787 24.2643 43.1068 24.2643H41.6863V28.4298H43.1068Z" fill="#CD4631"/>
<path d="M29.025 38.8215C28.3275 38.8215 27.6972 38.6711 27.1342 38.3704C26.5775 38.0696 26.1392 37.6569 25.8192 37.1322C25.5057 36.6011 25.3489 36.0061 25.3489 35.347C25.3489 34.688 25.5057 34.0961 25.8192 33.5714C26.1392 33.0403 26.5775 32.6244 27.1342 32.3237C27.6972 32.0229 28.3275 31.8725 29.025 31.8725C29.7224 31.8725 30.3495 32.0229 30.9062 32.3237C31.4628 32.6244 31.9011 33.0403 32.2211 33.5714C32.541 34.0961 32.701 34.688 32.701 35.347C32.701 36.0061 32.541 36.6011 32.2211 37.1322C31.9011 37.6569 31.4628 38.0696 30.9062 38.3704C30.3495 38.6711 29.7224 38.8215 29.025 38.8215ZM29.025 37.497C29.4217 37.497 29.78 37.4074 30.0999 37.2282C30.4199 37.0427 30.6694 36.7867 30.8486 36.4604C31.0341 36.134 31.1269 35.7629 31.1269 35.347C31.1269 34.9311 31.0341 34.56 30.8486 34.2336C30.6694 33.9073 30.4199 33.6546 30.0999 33.4754C29.78 33.2898 29.4217 33.1971 29.025 33.1971C28.6282 33.1971 28.2699 33.2898 27.95 33.4754C27.63 33.6546 27.3773 33.9073 27.1917 34.2336C27.0126 34.56 26.923 34.9311 26.923 35.347C26.923 35.7629 27.0126 36.134 27.1917 36.4604C27.3773 36.7867 27.63 37.0427 27.95 37.2282C28.2699 37.4074 28.6282 37.497 29.025 37.497ZM36.6145 33.1971C36.0771 33.1971 35.6707 33.3154 35.3956 33.5522C35.1205 33.7825 34.9829 34.1313 34.9829 34.5984V35.0111H37.7471V36.2588H34.9829V38.7063H33.428V34.608C33.428 33.7442 33.6968 33.0723 34.2342 32.5924C34.7781 32.1125 35.5364 31.8725 36.509 31.8725C36.8929 31.8725 37.2544 31.9141 37.5935 31.9973C37.9327 32.0741 38.227 32.1893 38.4765 32.3428L37.9967 33.5714C37.6127 33.3218 37.152 33.1971 36.6145 33.1971ZM28.9866 47.8215C28.3019 47.8215 27.6812 47.6743 27.1246 47.38C26.5743 47.0792 26.1392 46.6665 25.8192 46.1418C25.5057 45.6107 25.3489 45.0125 25.3489 44.347C25.3489 43.6816 25.5057 43.0865 25.8192 42.5618C26.1392 42.0307 26.5743 41.618 27.1246 41.3237C27.6812 41.0229 28.3051 40.8725 28.9962 40.8725C29.5784 40.8725 30.1031 40.9749 30.5702 41.1797C31.0437 41.3844 31.4404 41.6788 31.7604 42.0627L30.7622 42.9841C30.3079 42.4594 29.7448 42.1971 29.0729 42.1971C28.657 42.1971 28.2859 42.2898 27.9596 42.4754C27.6332 42.6546 27.3773 42.9073 27.1917 43.2336C27.0126 43.56 26.923 43.9311 26.923 44.347C26.923 44.7629 27.0126 45.134 27.1917 45.4604C27.3773 45.7867 27.6332 46.0427 27.9596 46.2282C28.2859 46.4074 28.657 46.497 29.0729 46.497C29.7448 46.497 30.3079 46.2314 30.7622 45.7003L31.7604 46.6217C31.4404 47.012 31.0437 47.3096 30.5702 47.5143C30.0967 47.7191 29.5688 47.8215 28.9866 47.8215ZM35.4498 40.8725C36.0705 40.8725 36.6112 40.9941 37.0719 41.2373C37.5326 41.4804 37.8909 41.8387 38.1468 42.3122C38.4028 42.7857 38.5308 43.3584 38.5308 44.0303V47.7063H36.9759V46.0938H33.9045V47.7063H32.3689V44.0303C32.3689 43.3584 32.4968 42.7857 32.7528 42.3122C33.0087 41.8387 33.3671 41.4804 33.8278 41.2373C34.2885 40.9941 34.8291 40.8725 35.4498 40.8725ZM36.9759 44.8461V43.8863C36.9759 43.3296 36.8383 42.9105 36.5632 42.629C36.288 42.341 35.9137 42.1971 35.4402 42.1971C34.9603 42.1971 34.5828 42.341 34.3077 42.629C34.0389 42.9105 33.9045 43.3296 33.9045 43.8863V44.8461H36.9759ZM41.8891 47.8215C41.358 47.8215 40.8429 47.7511 40.3438 47.6103C39.8511 47.4632 39.4544 47.2744 39.1537 47.044L39.6815 45.8731C39.9695 46.0842 40.3118 46.2538 40.7085 46.3818C41.1052 46.5098 41.502 46.5737 41.8987 46.5737C42.3402 46.5737 42.6665 46.5098 42.8777 46.3818C43.0888 46.2474 43.1944 46.0714 43.1944 45.8539C43.1944 45.6939 43.1304 45.5628 43.0024 45.4604C42.8809 45.3516 42.7209 45.2652 42.5225 45.2012C42.3306 45.1372 42.0682 45.0669 41.7355 44.9901C41.2236 44.8685 40.8045 44.7469 40.4782 44.6254C40.1518 44.5038 39.8703 44.3086 39.6336 44.0399C39.4032 43.7711 39.288 43.4128 39.288 42.9649C39.288 42.5746 39.3936 42.2227 39.6048 41.9091C39.8159 41.5892 40.1326 41.3364 40.555 41.1509C40.9837 40.9653 41.5052 40.8725 42.1194 40.8725C42.5481 40.8725 42.9672 40.9237 43.3768 41.0261C43.7863 41.1285 44.1446 41.2757 44.4517 41.4676L43.9718 42.6482C43.3512 42.2962 42.7305 42.1203 42.1098 42.1203C41.6747 42.1203 41.3516 42.1907 41.1404 42.3314C40.9357 42.4722 40.8333 42.6578 40.8333 42.8881C40.8333 43.1185 40.9517 43.2912 41.1884 43.4064C41.4316 43.5152 41.7995 43.624 42.2922 43.7327C42.8041 43.8543 43.2232 43.9759 43.5495 44.0975C43.8759 44.219 44.1542 44.411 44.3845 44.6733C44.6213 44.9357 44.7397 45.2908 44.7397 45.7387C44.7397 46.1226 44.6309 46.4746 44.4133 46.7945C44.2022 47.108 43.8823 47.3576 43.4535 47.5431C43.0248 47.7287 42.5033 47.8215 41.8891 47.8215ZM50.2476 42.8689C49.6717 42.5362 49.0542 42.3218 48.3951 42.2259V47.7063H46.8403V42.2259C46.1812 42.3218 45.5605 42.5362 44.9783 42.8689L44.4504 41.7076C44.9111 41.4324 45.4102 41.2245 45.9477 41.0837C46.4852 40.9429 47.0386 40.8725 47.6081 40.8725C48.184 40.8725 48.7407 40.9429 49.2782 41.0837C49.822 41.2245 50.3211 41.4324 50.7754 41.7076L50.2476 42.8689Z" fill="black"/>
</g>
<defs>
<clipPath id="clip0_447_28">
<rect width="50.7321" height="50.7321" fill="white" transform="translate(0.979614 0.453613)"/>
</clipPath>
</defs>
</svg>
