<svg width="29" height="24" viewBox="0 0 29 24" fill="none" xmlns="http://www.w3.org/2000/svg">
<path d="M9.5852 11.1867C10.6815 11.6691 11.5367 12.3926 12.1506 13.3574C12.7646 14.3222 13.0716 15.4624 13.0716 16.778C13.0716 18.6637 12.4795 20.1986 11.2955 21.3826C10.1114 22.5228 8.59849 23.0929 6.75664 23.0929C4.91479 23.0929 3.37992 22.5009 2.15202 21.3168C0.967971 20.1328 0.375948 18.6199 0.375948 16.778C0.375948 15.9009 0.485582 15.0239 0.704849 14.1468C0.924117 13.2697 1.40651 11.9541 2.15202 10.2L5.96728 0.727599H12.4795L9.5852 11.1867ZM25.1094 11.1867C26.2057 11.6691 27.0608 12.3926 27.6748 13.3574C28.2887 14.3222 28.5957 15.4624 28.5957 16.778C28.5957 18.6637 28.0037 20.1986 26.8196 21.3826C25.6356 22.5228 24.1227 23.0929 22.2808 23.0929C20.439 23.0929 18.9041 22.5009 17.6762 21.3168C16.4921 20.1328 15.9001 18.6199 15.9001 16.778C15.9001 15.9009 16.0097 15.0239 16.229 14.1468C16.4483 13.2697 16.9307 11.9541 17.6762 10.2L21.4914 0.727599H28.0037L25.1094 11.1867Z" fill="#CD4631"/>
</svg>
