<svg width="13" height="14" viewBox="0 0 13 14" fill="none" xmlns="http://www.w3.org/2000/svg">
<mask id="path-1-outside-1_447_432" maskUnits="userSpaceOnUse" x="0.0415039" y="0.443848" width="13" height="13" fill="black">
<rect fill="white" x="0.0415039" y="0.443848" width="13" height="13"/>
<path d="M6.52608 1.44385C5.44131 1.44385 4.38093 1.76551 3.47899 2.36814C2.57708 2.97081 1.87412 3.82739 1.45898 4.82954C1.04387 5.83173 0.935264 6.93449 1.1469 7.99838C1.35851 9.06229 1.88085 10.0395 2.64789 10.8066C3.41492 11.5736 4.39219 12.0959 5.45609 12.3076C6.51998 12.5192 7.62274 12.4106 8.6249 11.9955C9.62708 11.5803 10.4837 10.8774 11.0863 9.97545C11.689 9.07353 12.0106 8.01315 12.0106 6.92841C12.0106 5.4738 11.4328 4.07879 10.4042 3.05025C9.37566 2.02167 7.98067 1.44385 6.52608 1.44385ZM9.04291 9.35334C9.01958 9.39209 8.98876 9.42582 8.95229 9.45257C8.91579 9.47932 8.87434 9.49853 8.83034 9.50912C8.78638 9.51971 8.74072 9.52145 8.69605 9.51424C8.65138 9.50703 8.60859 9.49103 8.57018 9.46715C7.28332 8.67926 5.66377 8.50417 3.75534 8.93751C3.71191 8.94787 3.66689 8.94951 3.62283 8.94231C3.5788 8.93513 3.53658 8.91926 3.49874 8.89567C3.46087 8.87205 3.42807 8.84115 3.40222 8.80475C3.37638 8.76834 3.35806 8.72718 3.34827 8.68363C3.33784 8.63996 3.33618 8.59464 3.34329 8.55029C3.35044 8.50594 3.36623 8.46345 3.38981 8.42522C3.41339 8.38701 3.44431 8.35383 3.48071 8.32757C3.51715 8.3013 3.55841 8.28247 3.60212 8.27218C5.69003 7.79506 7.48465 8.00079 8.92913 8.88498C9.00618 8.9321 9.06144 9.00787 9.08276 9.09564C9.1041 9.18344 9.08978 9.2761 9.04291 9.35334ZM9.71263 7.86072C9.65146 7.95483 9.55648 8.02181 9.44732 8.04788C9.33817 8.07395 9.22318 8.05708 9.12609 8.00079C7.4618 7.07241 5.49706 6.84257 3.66341 7.36172C3.60636 7.39355 3.5429 7.41219 3.47771 7.41627C3.4125 7.42036 3.34722 7.4098 3.28663 7.38538C3.22603 7.36095 3.1717 7.32329 3.12757 7.27511C3.08345 7.22696 3.05064 7.16951 3.0316 7.10704C3.01255 7.04453 3.00773 6.97859 3.01749 6.91399C3.02726 6.84939 3.05135 6.78782 3.08801 6.73375C3.12467 6.67968 3.17298 6.63453 3.22935 6.60154C3.28577 6.56858 3.34881 6.54862 3.4139 6.54322C4.43737 6.24859 5.5094 6.16147 6.56701 6.28702C7.62462 6.41254 8.6465 6.74817 9.57256 7.27421C9.66665 7.33536 9.73362 7.43034 9.75969 7.53948C9.78576 7.64865 9.76891 7.76365 9.71263 7.86072ZM9.76952 6.30685C8.01867 5.25632 5.09037 5.16002 3.40079 5.67215C3.27077 5.71165 3.13038 5.69784 3.01054 5.63379C2.8907 5.56977 2.8012 5.46076 2.76173 5.33073C2.72226 5.20074 2.73604 5.06034 2.80008 4.94049C2.86409 4.82066 2.97311 4.73115 3.10313 4.69169C5.04223 4.10515 8.25941 4.21896 10.2948 5.42265C10.3994 5.49755 10.472 5.60907 10.4982 5.73508C10.5243 5.86105 10.5021 5.99227 10.4359 6.10263C10.3697 6.21296 10.2644 6.29433 10.1409 6.33054C10.0174 6.36678 9.88483 6.35519 9.76952 6.29809V6.30685Z"/>
</mask>
<path d="M6.52608 1.44385C5.44131 1.44385 4.38093 1.76551 3.47899 2.36814C2.57708 2.97081 1.87412 3.82739 1.45898 4.82954C1.04387 5.83173 0.935264 6.93449 1.1469 7.99838C1.35851 9.06229 1.88085 10.0395 2.64789 10.8066C3.41492 11.5736 4.39219 12.0959 5.45609 12.3076C6.51998 12.5192 7.62274 12.4106 8.6249 11.9955C9.62708 11.5803 10.4837 10.8774 11.0863 9.97545C11.689 9.07353 12.0106 8.01315 12.0106 6.92841C12.0106 5.4738 11.4328 4.07879 10.4042 3.05025C9.37566 2.02167 7.98067 1.44385 6.52608 1.44385ZM9.04291 9.35334C9.01958 9.39209 8.98876 9.42582 8.95229 9.45257C8.91579 9.47932 8.87434 9.49853 8.83034 9.50912C8.78638 9.51971 8.74072 9.52145 8.69605 9.51424C8.65138 9.50703 8.60859 9.49103 8.57018 9.46715C7.28332 8.67926 5.66377 8.50417 3.75534 8.93751C3.71191 8.94787 3.66689 8.94951 3.62283 8.94231C3.5788 8.93513 3.53658 8.91926 3.49874 8.89567C3.46087 8.87205 3.42807 8.84115 3.40222 8.80475C3.37638 8.76834 3.35806 8.72718 3.34827 8.68363C3.33784 8.63996 3.33618 8.59464 3.34329 8.55029C3.35044 8.50594 3.36623 8.46345 3.38981 8.42522C3.41339 8.38701 3.44431 8.35383 3.48071 8.32757C3.51715 8.3013 3.55841 8.28247 3.60212 8.27218C5.69003 7.79506 7.48465 8.00079 8.92913 8.88498C9.00618 8.9321 9.06144 9.00787 9.08276 9.09564C9.1041 9.18344 9.08978 9.2761 9.04291 9.35334ZM9.71263 7.86072C9.65146 7.95483 9.55648 8.02181 9.44732 8.04788C9.33817 8.07395 9.22318 8.05708 9.12609 8.00079C7.4618 7.07241 5.49706 6.84257 3.66341 7.36172C3.60636 7.39355 3.5429 7.41219 3.47771 7.41627C3.4125 7.42036 3.34722 7.4098 3.28663 7.38538C3.22603 7.36095 3.1717 7.32329 3.12757 7.27511C3.08345 7.22696 3.05064 7.16951 3.0316 7.10704C3.01255 7.04453 3.00773 6.97859 3.01749 6.91399C3.02726 6.84939 3.05135 6.78782 3.08801 6.73375C3.12467 6.67968 3.17298 6.63453 3.22935 6.60154C3.28577 6.56858 3.34881 6.54862 3.4139 6.54322C4.43737 6.24859 5.5094 6.16147 6.56701 6.28702C7.62462 6.41254 8.6465 6.74817 9.57256 7.27421C9.66665 7.33536 9.73362 7.43034 9.75969 7.53948C9.78576 7.64865 9.76891 7.76365 9.71263 7.86072ZM9.76952 6.30685C8.01867 5.25632 5.09037 5.16002 3.40079 5.67215C3.27077 5.71165 3.13038 5.69784 3.01054 5.63379C2.8907 5.56977 2.8012 5.46076 2.76173 5.33073C2.72226 5.20074 2.73604 5.06034 2.80008 4.94049C2.86409 4.82066 2.97311 4.73115 3.10313 4.69169C5.04223 4.10515 8.25941 4.21896 10.2948 5.42265C10.3994 5.49755 10.472 5.60907 10.4982 5.73508C10.5243 5.86105 10.5021 5.99227 10.4359 6.10263C10.3697 6.21296 10.2644 6.29433 10.1409 6.33054C10.0174 6.36678 9.88483 6.35519 9.76952 6.29809V6.30685Z" fill="#1ED760"/>
<path d="M3.47899 2.36814L3.09812 1.79811L3.09809 1.79812L3.47899 2.36814ZM1.45898 4.82954L0.825604 4.56717L0.825594 4.5672L1.45898 4.82954ZM1.1469 7.99838L1.8193 7.86464L1.8193 7.86462L1.1469 7.99838ZM2.64789 10.8066L2.16311 11.2913L2.16313 11.2914L2.64789 10.8066ZM8.6249 11.9955L8.36254 11.3621L8.36253 11.3621L8.6249 11.9955ZM10.4042 3.05025L9.91947 3.53502V3.53502L10.4042 3.05025ZM9.04291 9.35334L8.45679 8.9977L8.45553 8.99981L9.04291 9.35334ZM8.95229 9.45257L9.3575 10.0056L9.35773 10.0054L8.95229 9.45257ZM8.83034 9.50912L8.66993 8.84258L8.66982 8.84261L8.83034 9.50912ZM8.57018 9.46715L8.93214 8.8849L8.92816 8.88247L8.57018 9.46715ZM3.75534 8.93751L3.60352 8.26892L3.59619 8.27067L3.75534 8.93751ZM3.62283 8.94231L3.73353 8.26573L3.73312 8.26567L3.62283 8.94231ZM3.49874 8.89567L3.13591 9.47735L3.13604 9.47744L3.49874 8.89567ZM3.34827 8.68363L4.01718 8.53317L4.01508 8.52434L3.34827 8.68363ZM3.34329 8.55029L2.66645 8.44122L2.66638 8.44169L3.34329 8.55029ZM3.38981 8.42522L2.80641 8.06515L2.80628 8.06537L3.38981 8.42522ZM3.48071 8.32757L3.07985 7.77141L3.07962 7.77157L3.48071 8.32757ZM3.60212 8.27218L3.44939 7.60382L3.44489 7.60488L3.60212 8.27218ZM8.92913 8.88498L8.57121 9.46971L8.57147 9.46987L8.92913 8.88498ZM9.08276 9.09564L8.41655 9.25742L8.41659 9.25759L9.08276 9.09564ZM9.71263 7.86072L10.2875 8.23432L10.297 8.21969L10.3057 8.2046L9.71263 7.86072ZM9.12609 8.00079L9.47 7.40761L9.46007 7.40207L9.12609 8.00079ZM3.66341 7.36172L3.47665 6.70208L3.39944 6.72394L3.32937 6.76304L3.66341 7.36172ZM3.47771 7.41627L3.5206 8.1005L3.52062 8.1005L3.47771 7.41627ZM3.12757 7.27511L3.63315 6.81208L3.63299 6.81191L3.12757 7.27511ZM3.0316 7.10704L2.3758 7.30689L2.37583 7.30699L3.0316 7.10704ZM3.22935 6.60154L2.88351 6.00959L2.88312 6.00982L3.22935 6.60154ZM3.4139 6.54322L3.47066 7.22643L3.53831 7.22081L3.60355 7.20203L3.4139 6.54322ZM6.56701 6.28702L6.48619 6.96781L6.48621 6.96781L6.56701 6.28702ZM9.57256 7.27421L9.94615 6.69937L9.92898 6.68821L9.91117 6.6781L9.57256 7.27421ZM9.75969 7.53948L10.4265 7.38026L10.4265 7.38021L9.75969 7.53948ZM9.76952 6.30685L9.41679 6.89472L10.4551 7.5177V6.30685H9.76952ZM3.40079 5.67215L3.20192 5.01606L3.20155 5.01618L3.40079 5.67215ZM3.01054 5.63379L3.33368 5.02916L3.33356 5.02909L3.01054 5.63379ZM2.76173 5.33073L3.41774 5.13161L3.41773 5.13156L2.76173 5.33073ZM2.80008 4.94049L3.40476 5.26355L3.40479 5.26349L2.80008 4.94049ZM3.10313 4.69169L2.90464 4.03549L2.90404 4.03567L3.10313 4.69169ZM10.2948 5.42265L10.6939 4.8652L10.6695 4.84778L10.6438 4.83255L10.2948 5.42265ZM10.4982 5.73508L11.1695 5.59583L11.1695 5.5957L10.4982 5.73508ZM10.4359 6.10263L11.0237 6.45538L11.0238 6.45531L10.4359 6.10263ZM10.1409 6.33054L9.94795 5.67268L9.94784 5.67271L10.1409 6.33054ZM9.76952 6.29809L10.0737 5.68372L9.08395 5.19362V6.29809H9.76952ZM6.52608 0.758279C5.30573 0.758279 4.11279 1.12014 3.09812 1.79811L3.85986 2.93818C4.64906 2.41087 5.5769 2.12942 6.52608 2.12942V0.758279ZM3.09809 1.79812C2.08346 2.47612 1.29263 3.43976 0.825604 4.56717L2.09236 5.09192C2.45561 4.21502 3.07071 3.4655 3.85989 2.93816L3.09809 1.79812ZM0.825594 4.5672C0.358603 5.69465 0.236414 6.93526 0.474507 8.13213L1.8193 7.86462C1.63411 6.93373 1.72915 5.96881 2.09237 5.09189L0.825594 4.5672ZM0.474503 8.13211C0.71256 9.32902 1.3002 10.4284 2.16311 11.2913L3.13266 10.3218C2.4615 9.65064 2.00445 8.79556 1.8193 7.86464L0.474503 8.13211ZM2.16313 11.2914C3.02603 12.1542 4.12546 12.7419 5.32234 12.98L5.58983 11.6352C4.65893 11.45 3.80381 10.9929 3.13265 10.3218L2.16313 11.2914ZM5.32234 12.98C6.51921 13.218 7.75982 13.0959 8.88726 12.6288L8.36253 11.3621C7.48566 11.7253 6.52075 11.8203 5.58983 11.6352L5.32234 12.98ZM8.88725 12.6288C10.0147 12.1618 10.9783 11.371 11.6563 10.3563L10.5163 9.59457C9.98896 10.3838 9.23946 10.9988 8.36254 11.3621L8.88725 12.6288ZM11.6563 10.3563C12.3343 9.34166 12.6962 8.14874 12.6962 6.92841H11.325C11.325 7.87756 11.0436 8.80539 10.5163 9.59457L11.6563 10.3563ZM12.6962 6.92841C12.6962 5.29197 12.0461 3.72259 10.889 2.56548L9.91947 3.53502C10.8194 4.43499 11.325 5.65562 11.325 6.92841H12.6962ZM10.889 2.56548C9.73186 1.40833 8.1625 0.758279 6.52608 0.758279V2.12942C7.79884 2.12942 9.01946 2.63501 9.91947 3.53502L10.889 2.56548ZM8.45553 8.99981C8.47916 8.96053 8.51025 8.92658 8.54685 8.89974L9.35773 10.0054C9.46727 9.92507 9.56 9.82366 9.63029 9.70688L8.45553 8.99981ZM8.54708 8.89957C8.58391 8.87258 8.62569 8.85323 8.66993 8.84258L8.99076 10.1757C9.123 10.1438 9.24767 10.086 9.3575 10.0056L8.54708 8.89957ZM8.66982 8.84261C8.71428 8.8319 8.76032 8.83017 8.80529 8.83743L8.58681 10.191C8.72112 10.2127 8.85848 10.2075 8.99087 10.1756L8.66982 8.84261ZM8.80529 8.83743C8.85011 8.84466 8.89325 8.86075 8.93213 8.88492L8.20823 10.0494C8.32394 10.1213 8.45265 10.1694 8.58681 10.191L8.80529 8.83743ZM8.92816 8.88247C7.44643 7.97526 5.63098 7.80859 3.60353 8.26896L3.90714 9.60606C5.69656 9.19974 7.12021 9.38325 8.2122 10.0518L8.92816 8.88247ZM3.59619 8.27067C3.641 8.25997 3.6877 8.25823 3.73353 8.26573L3.51213 9.61888C3.64608 9.64079 3.78282 9.63577 3.91448 9.60435L3.59619 8.27067ZM3.73312 8.26567C3.77866 8.27309 3.82224 8.28946 3.86144 8.3139L3.13604 9.47744C3.25093 9.54906 3.37893 9.59717 3.51253 9.61894L3.73312 8.26567ZM3.86158 8.31399C3.90067 8.33837 3.93455 8.37028 3.96123 8.40786L2.84322 9.20163C2.92159 9.31201 3.02107 9.40572 3.13591 9.47735L3.86158 8.31399ZM3.96123 8.40786C3.98816 8.44579 4.00706 8.48845 4.01713 8.53318L2.67941 8.83408C2.70907 8.96591 2.7646 9.0909 2.84322 9.20163L3.96123 8.40786ZM4.01508 8.52434C4.02573 8.56894 4.0273 8.61467 4.0202 8.65889L2.66638 8.44169C2.64505 8.57461 2.64994 8.71097 2.68146 8.84292L4.01508 8.52434ZM4.02013 8.65936C4.01296 8.70381 3.99709 8.74656 3.97335 8.78507L2.80628 8.06537C2.73537 8.18035 2.68791 8.30806 2.66645 8.44122L4.02013 8.65936ZM3.97321 8.78529C3.94933 8.82399 3.91821 8.8573 3.88181 8.88356L3.07962 7.77157C2.97041 7.85036 2.87746 7.95004 2.80641 8.06515L3.97321 8.78529ZM3.88158 8.88373C3.84497 8.91011 3.80345 8.92908 3.75934 8.93947L3.44489 7.60488C3.31336 7.63587 3.18933 7.6925 3.07985 7.77141L3.88158 8.88373ZM3.75484 8.94052C5.71691 8.49216 7.31741 8.70223 8.57121 9.46971L9.28705 8.30026C7.65189 7.29935 5.66314 7.09796 3.44939 7.60383L3.75484 8.94052ZM8.57147 9.46987C8.49378 9.42236 8.43806 9.346 8.41655 9.25742L9.74897 8.93386C9.68483 8.66974 9.51858 8.44185 9.28679 8.3001L8.57147 9.46987ZM8.41659 9.25759C8.39508 9.1691 8.40951 9.07562 8.4568 8.9977L9.62901 9.70899C9.77004 9.47657 9.81313 9.19778 9.74892 8.93368L8.41659 9.25759ZM9.1378 7.48712C9.17251 7.43371 9.22635 7.3958 9.28806 7.38106L9.60659 8.71469C9.8866 8.64781 10.1304 8.47595 10.2875 8.23432L9.1378 7.48712ZM9.28806 7.38106C9.34994 7.36628 9.41505 7.37586 9.46995 7.4077L8.78222 8.59389C9.03131 8.7383 9.3264 8.78161 9.60659 8.71469L9.28806 7.38106ZM9.46007 7.40207C7.63712 6.38519 5.48508 6.13344 3.47665 6.70208L3.85017 8.02136C5.50903 7.5517 7.28648 7.75963 8.79211 8.59951L9.46007 7.40207ZM3.32937 6.76304C3.36182 6.74493 3.39785 6.73437 3.43481 6.73205L3.52062 8.1005C3.68795 8.09001 3.8509 8.04217 3.99745 7.9604L3.32937 6.76304ZM3.43483 6.73205C3.47171 6.72974 3.50867 6.73571 3.54298 6.74954L3.03027 8.02121C3.18576 8.0839 3.35328 8.11099 3.5206 8.1005L3.43483 6.73205ZM3.54298 6.74954C3.57722 6.76334 3.60807 6.78469 3.63315 6.81208L2.622 7.73814C2.73533 7.86189 2.87485 7.95855 3.03027 8.02121L3.54298 6.74954ZM3.63299 6.81191C3.65803 6.83923 3.67658 6.87174 3.68736 6.90709L2.37583 7.30699C2.42471 7.46728 2.50886 7.61469 2.62215 7.73831L3.63299 6.81191ZM3.68739 6.90718C3.69816 6.94252 3.70089 6.97986 3.69536 7.01645L2.33962 6.81153C2.31457 6.97731 2.32694 7.14655 2.3758 7.30689L3.68739 6.90718ZM3.69536 7.01645C3.68983 7.05302 3.67619 7.08789 3.65545 7.11848L2.52057 6.34902C2.4265 6.48776 2.36468 6.64577 2.33962 6.81153L3.69536 7.01645ZM3.65545 7.11848C3.63459 7.14924 3.60724 7.17473 3.57559 7.19325L2.88312 6.00982C2.73871 6.09432 2.61474 6.21012 2.52057 6.34902L3.65545 7.11848ZM3.57519 7.19348C3.54357 7.21196 3.50789 7.22334 3.47066 7.22643L3.35715 5.86C3.18974 5.87391 3.02796 5.9252 2.88351 6.00959L3.57519 7.19348ZM3.60355 7.20203C4.53924 6.93268 5.51932 6.85303 6.48619 6.96781L6.64783 5.60623C5.49949 5.46991 4.3355 5.56451 3.22425 5.8844L3.60355 7.20203ZM6.48621 6.96781C7.45311 7.08257 8.38733 7.38941 9.23394 7.87032L9.91117 6.6781C8.90567 6.10694 7.79614 5.74252 6.64781 5.60623L6.48621 6.96781ZM9.19896 7.84904C9.14552 7.81431 9.10761 7.76045 9.09288 7.69875L10.4265 7.38021C10.3596 7.10022 10.1878 6.85641 9.94615 6.69937L9.19896 7.84904ZM9.09287 7.6987C9.07813 7.63698 9.08763 7.57187 9.11954 7.51684L10.3057 8.2046C10.4502 7.95543 10.4934 7.66032 10.4265 7.38026L9.09287 7.6987ZM10.1222 5.71898C9.1238 5.1199 7.83875 4.81619 6.61592 4.72004C5.39 4.62366 4.14676 4.72967 3.20192 5.01606L3.59966 6.32825C4.3444 6.1025 5.4101 6.00061 6.50844 6.08696C7.60987 6.17356 8.66439 6.44327 9.41679 6.89472L10.1222 5.71898ZM3.20155 5.01618C3.2456 5.0028 3.29313 5.00748 3.33368 5.02916L2.68739 6.23842C2.96763 6.3882 3.29594 6.4205 3.60003 6.32813L3.20155 5.01618ZM3.33356 5.02909C3.37413 5.05076 3.4044 5.08766 3.41774 5.13161L2.10572 5.52986C2.19799 5.83387 2.40726 6.08878 2.68752 6.23849L3.33356 5.02909ZM3.41773 5.13156C3.43108 5.17554 3.42642 5.22301 3.40476 5.26355L2.1954 4.61742C2.04567 4.89768 2.01344 5.22593 2.10573 5.5299L3.41773 5.13156ZM3.40479 5.26349C3.3831 5.3041 3.3462 5.33437 3.30222 5.34772L2.90404 4.03567C2.60002 4.12794 2.34508 4.33722 2.19537 4.61748L3.40479 5.26349ZM3.30162 5.3479C4.17278 5.08439 5.37324 4.96899 6.6074 5.06916C7.84328 5.16946 9.04575 5.48047 9.94582 6.01276L10.6438 4.83255C9.50845 4.16114 8.08464 3.8134 6.71831 3.70251C5.35025 3.59148 3.97258 3.71246 2.90464 4.03549L3.30162 5.3479ZM9.89573 5.98011C9.86036 5.95478 9.8358 5.91706 9.82695 5.87445L11.1695 5.5957C11.1083 5.30108 10.9385 5.04031 10.6939 4.8652L9.89573 5.98011ZM9.82692 5.87432C9.81807 5.83165 9.82561 5.78726 9.84799 5.74996L11.0238 6.45531C11.1786 6.19728 11.2306 5.89045 11.1695 5.59583L9.82692 5.87432ZM9.84803 5.74988C9.87047 5.7125 9.90613 5.68495 9.94795 5.67268L10.3339 6.98839C10.6226 6.90371 10.8689 6.71343 11.0237 6.45538L9.84803 5.74988ZM9.94784 5.67271C9.98969 5.66043 10.0346 5.66435 10.0737 5.68372L9.4653 6.91247C9.73503 7.04603 10.0452 7.07312 10.334 6.98836L9.94784 5.67271ZM9.08395 6.29809V6.30685H10.4551V6.29809H9.08395Z" fill="black" mask="url(#path-1-outside-1_447_432)"/>
</svg>
