<svg width="12" height="12" viewBox="0 0 12 12" fill="none" xmlns="http://www.w3.org/2000/svg">
<path opacity="0.3" d="M11.2407 6.11971C11.2407 8.94322 8.94374 11.2394 6.12037 11.2394C3.297 11.2394 1 8.94322 1 6.11971C1 3.2967 3.297 1 6.12037 1C8.94374 1 11.2407 3.2967 11.2407 6.11971" stroke="black" stroke-opacity="0.4" stroke-width="1.02835"/>
<path d="M8.2815 5.38134C8.2815 5.47913 8.24412 5.57742 8.16936 5.65217L6.39259 7.43741C6.3204 7.5096 6.2226 7.55005 6.12019 7.55005C6.01829 7.55005 5.9205 7.5096 5.8483 7.43741L4.0705 5.65217C3.92099 5.50216 3.92099 5.25949 4.07153 5.10948C4.22207 4.95999 4.46529 4.9605 4.6148 5.11051L6.12019 6.62236L7.62558 5.11051C7.77509 4.9605 8.0178 4.95999 8.16834 5.10948C8.24412 5.18423 8.2815 5.28304 8.2815 5.38134Z" fill="black"/>
</svg>
