<svg width="18" height="18" viewBox="0 0 18 18" fill="none" xmlns="http://www.w3.org/2000/svg">
<g clip-path="url(#clip0_447_97)">
<path d="M8.13269 5.94666V8.43998V9.43655V11.9298H10.1894V9.43655V8.43998V5.94666H8.13269Z" fill="white"/>
<path d="M1.96272 9.40613C2.53082 9.40613 2.99135 8.9456 2.99135 8.3775C2.99135 7.8094 2.53082 7.34888 1.96272 7.34888C1.39462 7.34888 0.934082 7.8094 0.934082 8.3775C0.934082 8.9456 1.39462 9.40613 1.96272 9.40613Z" fill="white"/>
<path d="M1.96272 10.5277C2.53082 10.5277 2.99135 10.0672 2.99135 9.49909C2.99135 8.93099 2.53082 8.47046 1.96272 8.47046C1.39462 8.47046 0.934082 8.93099 0.934082 9.49909C0.934082 10.0672 1.39462 10.5277 1.96272 10.5277Z" fill="white"/>
<path d="M2.99135 8.37732H0.934082V9.49946H2.99135V8.37732Z" fill="white"/>
<path d="M16.3597 10.5277C16.9278 10.5277 17.3883 10.0672 17.3883 9.49909C17.3883 8.93099 16.9278 8.47046 16.3597 8.47046C15.7916 8.47046 15.3311 8.93099 15.3311 9.49909C15.3311 10.0672 15.7916 10.5277 16.3597 10.5277Z" fill="white"/>
<path d="M16.3597 9.40613C16.9278 9.40613 17.3883 8.9456 17.3883 8.3775C17.3883 7.8094 16.9278 7.34888 16.3597 7.34888C15.7916 7.34888 15.3311 7.8094 15.3311 8.3775C15.3311 8.9456 15.7916 9.40613 16.3597 9.40613Z" fill="white"/>
<path d="M15.3311 9.49946H17.3883V8.37732H15.3311V9.49946Z" fill="white"/>
<path d="M5.51483 12.7716C6.08292 12.7716 6.54346 12.3111 6.54346 11.743C6.54346 11.1749 6.08292 10.7144 5.51483 10.7144C4.94674 10.7144 4.48621 11.1749 4.48621 11.743C4.48621 12.3111 4.94674 12.7716 5.51483 12.7716Z" fill="white"/>
<path d="M5.51483 13.8936C6.08292 13.8936 6.54346 13.4331 6.54346 12.865C6.54346 12.2969 6.08292 11.8363 5.51483 11.8363C4.94674 11.8363 4.48621 12.2969 4.48621 12.865C4.48621 13.4331 4.94674 13.8936 5.51483 13.8936Z" fill="white"/>
<path d="M6.54346 11.7428H4.48621V12.8649H6.54346V11.7428Z" fill="white"/>
<path d="M5.51483 6.04039C6.08292 6.04039 6.54346 5.57986 6.54346 5.01178C6.54346 4.44369 6.08292 3.98315 5.51483 3.98315C4.94674 3.98315 4.48621 4.44369 4.48621 5.01178C4.48621 5.57986 4.94674 6.04039 5.51483 6.04039Z" fill="white"/>
<path d="M5.51483 9.68616C6.08292 9.68616 6.54346 9.22563 6.54346 8.65753C6.54346 8.08943 6.08292 7.62891 5.51483 7.62891C4.94674 7.62891 4.48621 8.08943 4.48621 8.65753C4.48621 9.22563 4.94674 9.68616 5.51483 9.68616Z" fill="white"/>
<path d="M6.54292 5.01147H4.48621V8.68087H6.54292V5.01147Z" fill="white"/>
<path d="M12.8071 7.16261C13.3751 7.16261 13.8357 6.70208 13.8357 6.13398C13.8357 5.56588 13.3751 5.10535 12.8071 5.10535C12.239 5.10535 11.7784 5.56588 11.7784 6.13398C11.7784 6.70208 12.239 7.16261 12.8071 7.16261Z" fill="white"/>
<path d="M12.8071 6.04039C13.3751 6.04039 13.8357 5.57986 13.8357 5.01178C13.8357 4.44369 13.3751 3.98315 12.8071 3.98315C12.239 3.98315 11.7784 4.44369 11.7784 5.01178C11.7784 5.57986 12.239 6.04039 12.8071 6.04039Z" fill="white"/>
<path d="M11.7782 6.13361H13.8355V5.01147H11.7782V6.13361Z" fill="white"/>
<path d="M9.16131 3.89051C9.72944 3.89051 10.19 3.42998 10.19 2.86188C10.19 2.29379 9.72944 1.83325 9.16131 1.83325C8.59323 1.83325 8.13269 2.29379 8.13269 2.86188C8.13269 3.42998 8.59323 3.89051 9.16131 3.89051Z" fill="white"/>
<path d="M9.16131 2.76856C9.72944 2.76856 10.19 2.30803 10.19 1.73993C10.19 1.17184 9.72944 0.711304 9.16131 0.711304C8.59323 0.711304 8.13269 1.17184 8.13269 1.73993C8.13269 2.30803 8.59323 2.76856 9.16131 2.76856Z" fill="white"/>
<path d="M8.13269 2.86165H10.19V1.7395H8.13269V2.86165Z" fill="white"/>
<path d="M9.16131 17.1654C9.72944 17.1654 10.19 16.7049 10.19 16.1368C10.19 15.5687 9.72944 15.1082 9.16131 15.1082C8.59323 15.1082 8.13269 15.5687 8.13269 16.1368C8.13269 16.7049 8.59323 17.1654 9.16131 17.1654Z" fill="white"/>
<path d="M9.16131 16.0438C9.72944 16.0438 10.19 15.5833 10.19 15.0152C10.19 14.4471 9.72944 13.9866 9.16131 13.9866C8.59323 13.9866 8.13269 14.4471 8.13269 15.0152C8.13269 15.5833 8.59323 16.0438 9.16131 16.0438Z" fill="white"/>
<path d="M8.13269 16.137H10.19V15.0149H8.13269V16.137Z" fill="white"/>
<path d="M12.8071 13.8936C13.3751 13.8936 13.8357 13.4331 13.8357 12.865C13.8357 12.2969 13.3751 11.8363 12.8071 11.8363C12.239 11.8363 11.7784 12.2969 11.7784 12.865C11.7784 13.4331 12.239 13.8936 12.8071 13.8936Z" fill="white"/>
<path d="M12.8071 10.2478C13.3751 10.2478 13.8357 9.78728 13.8357 9.21918C13.8357 8.65108 13.3751 8.19055 12.8071 8.19055C12.239 8.19055 11.7784 8.65108 11.7784 9.21918C11.7784 9.78728 12.239 10.2478 12.8071 10.2478Z" fill="white"/>
<path d="M11.7782 12.8644H13.835V9.21838H11.7782V12.8644Z" fill="white"/>
<path d="M9.16131 6.97549C9.72944 6.97549 10.19 6.51492 10.19 5.94686C10.19 5.37876 9.72944 4.91821 9.16131 4.91821C8.59323 4.91821 8.13269 5.37876 8.13269 5.94686C8.13269 6.51492 8.59323 6.97549 9.16131 6.97549Z" fill="white"/>
<path d="M9.16131 12.9589C9.72944 12.9589 10.19 12.4983 10.19 11.9302C10.19 11.3621 9.72944 10.9016 9.16131 10.9016C8.59323 10.9016 8.13269 11.3621 8.13269 11.9302C8.13269 12.4983 8.59323 12.9589 9.16131 12.9589Z" fill="white"/>
</g>
<defs>
<clipPath id="clip0_447_97">
<rect width="16.4537" height="16.4537" fill="white" transform="translate(0.933594 0.711304)"/>
</clipPath>
</defs>
</svg>
