<svg width="17" height="18" viewBox="0 0 17 18" fill="none" xmlns="http://www.w3.org/2000/svg">
<path d="M8.46966 0.711304C6.84251 0.711304 5.25193 1.19379 3.89903 2.09775C2.54617 3.00175 1.49172 4.28662 0.869012 5.78985C0.246354 7.29313 0.0834387 8.94727 0.400894 10.5431C0.718301 12.139 1.50182 13.6048 2.65237 14.7554C3.80293 15.9059 5.26883 16.6895 6.86467 17.0069C8.46052 17.3243 10.1147 17.1614 11.6179 16.5387C13.1212 15.916 14.406 14.8616 15.31 13.5087C16.214 12.1558 16.6965 10.5653 16.6965 8.93815C16.6965 6.75623 15.8297 4.66372 14.2869 3.1209C12.744 1.57804 10.6515 0.711304 8.46966 0.711304ZM12.2449 12.5755C12.2099 12.6337 12.1637 12.6843 12.109 12.7244C12.0542 12.7645 11.9921 12.7933 11.9261 12.8092C11.8601 12.8251 11.7916 12.8277 11.7246 12.8169C11.6576 12.8061 11.5934 12.7821 11.5358 12.7463C9.60552 11.5644 7.17619 11.3018 4.31354 11.9518C4.24841 11.9673 4.18088 11.9698 4.11478 11.959C4.04874 11.9482 3.98542 11.9244 3.92865 11.889C3.87185 11.8536 3.82264 11.8073 3.78388 11.7527C3.74511 11.698 3.71764 11.6363 3.70295 11.571C3.6873 11.5055 3.68481 11.4375 3.69548 11.371C3.7062 11.3044 3.72989 11.2407 3.76526 11.1834C3.80063 11.1261 3.847 11.0763 3.90161 11.0369C3.95627 10.9975 4.01815 10.9692 4.08372 10.9538C7.21558 10.2381 9.90752 10.5467 12.0742 11.873C12.1898 11.9437 12.2727 12.0573 12.3047 12.189C12.3367 12.3207 12.3152 12.4597 12.2449 12.5755ZM13.2495 10.3366C13.1577 10.4778 13.0153 10.5782 12.8515 10.6173C12.6878 10.6565 12.5153 10.6312 12.3697 10.5467C9.87325 9.15414 6.92613 8.80939 4.17566 9.58811C4.09009 9.63586 3.99489 9.66381 3.89711 9.66994C3.79929 9.67607 3.70137 9.66024 3.61048 9.6236C3.51959 9.58695 3.43809 9.53047 3.3719 9.4582C3.30571 9.38597 3.25651 9.2998 3.22794 9.20609C3.19936 9.11233 3.19214 9.01341 3.20678 8.91652C3.22143 8.81962 3.25756 8.72727 3.31255 8.64616C3.36754 8.56505 3.44 8.49732 3.52457 8.44784C3.60919 8.3984 3.70376 8.36847 3.8014 8.36036C5.3366 7.91842 6.94464 7.78773 8.53106 7.97606C10.1175 8.16435 11.6503 8.66779 13.0394 9.45684C13.1805 9.54857 13.281 9.69104 13.3201 9.85475C13.3592 10.0185 13.3339 10.191 13.2495 10.3366ZM13.3348 8.0058C10.7085 6.43001 6.3161 6.28557 3.78173 7.05376C3.5867 7.113 3.37611 7.09229 3.19635 6.99622C3.01659 6.90019 2.88234 6.73667 2.82314 6.54163C2.76393 6.34664 2.78461 6.13605 2.88066 5.95626C2.97667 5.77652 3.14021 5.64226 3.33524 5.58307C6.24388 4.70326 11.0697 4.87397 14.1227 6.67951C14.2797 6.79186 14.3886 6.95914 14.4278 7.14815C14.467 7.33711 14.4337 7.53394 14.3344 7.69948C14.2351 7.86498 14.0771 7.98702 13.8919 8.04134C13.7067 8.0957 13.5078 8.07832 13.3348 7.99267V8.0058Z" fill="white"/>
</svg>
