<svg width="15" height="12" viewBox="0 0 15 12" fill="none" xmlns="http://www.w3.org/2000/svg">
<path fill-rule="evenodd" clip-rule="evenodd" d="M2.60884 0.957431C1.5905 1.00788 0.772495 1.80525 0.706408 2.82269C0.643091 3.79748 0.580688 4.99691 0.580688 5.93803C0.580688 6.87915 0.643091 8.07859 0.706408 9.05337C0.772495 10.0708 1.59051 10.8682 2.60884 10.9186C4.08346 10.9917 6.19111 11.0798 7.77916 11.0798C9.36721 11.0798 11.4749 10.9917 12.9495 10.9186C13.9678 10.8682 14.7858 10.0708 14.8519 9.05337C14.9152 8.07859 14.9776 6.87915 14.9776 5.93803C14.9776 4.99691 14.9152 3.79748 14.8519 2.82269C14.7858 1.80525 13.9678 1.00788 12.9495 0.957431C11.4749 0.884375 9.36721 0.796265 7.77916 0.796265C6.19111 0.796265 4.08346 0.884375 2.60884 0.957431ZM10.35 5.93792L6.23657 7.99462V3.88121L10.35 5.93792Z" fill="white"/>
</svg>
