<svg width="137" height="25" viewBox="0 0 137 25" fill="none" xmlns="http://www.w3.org/2000/svg">
<path d="M11.9087 8.01831V11.7583V13.2532V16.9931H15.0598V13.2532V11.7583V8.01831H11.9087Z" fill="#FAB908"/>
<path d="M2.45608 13.2072C3.32645 13.2072 4.03202 12.5164 4.03202 11.6643C4.03202 10.8121 3.32645 10.1213 2.45608 10.1213C1.5857 10.1213 0.880127 10.8121 0.880127 11.6643C0.880127 12.5164 1.5857 13.2072 2.45608 13.2072Z" fill="#0066D9"/>
<path d="M2.45608 14.8901C3.32645 14.8901 4.03202 14.1993 4.03202 13.3471C4.03202 12.495 3.32645 11.8042 2.45608 11.8042C1.5857 11.8042 0.880127 12.495 0.880127 13.3471C0.880127 14.1993 1.5857 14.8901 2.45608 14.8901Z" fill="#0066D9"/>
<path d="M4.03202 11.6641H0.880127V13.3473H4.03202V11.6641Z" fill="#0066D9"/>
<path d="M24.5132 14.8901C25.3836 14.8901 26.0891 14.1993 26.0891 13.3471C26.0891 12.495 25.3836 11.8042 24.5132 11.8042C23.6428 11.8042 22.9373 12.495 22.9373 13.3471C22.9373 14.1993 23.6428 14.8901 24.5132 14.8901Z" fill="#4285F4"/>
<path d="M24.5132 13.2072C25.3836 13.2072 26.0891 12.5164 26.0891 11.6643C26.0891 10.8121 25.3836 10.1213 24.5132 10.1213C23.6428 10.1213 22.9373 10.8121 22.9373 11.6643C22.9373 12.5164 23.6428 13.2072 24.5132 13.2072Z" fill="#4285F4"/>
<path d="M22.9373 13.3475H26.0891V11.6643H22.9373V13.3475Z" fill="#4285F4"/>
<path d="M7.89869 18.2558C8.76904 18.2558 9.47463 17.565 9.47463 16.7129C9.47463 15.8607 8.76904 15.1699 7.89869 15.1699C7.02832 15.1699 6.32275 15.8607 6.32275 16.7129C6.32275 17.565 7.02832 18.2558 7.89869 18.2558Z" fill="#EA4335"/>
<path d="M7.89869 19.9387C8.76904 19.9387 9.47463 19.2479 9.47463 18.3958C9.47463 17.5436 8.76904 16.8528 7.89869 16.8528C7.02832 16.8528 6.32275 17.5436 6.32275 18.3958C6.32275 19.2479 7.02832 19.9387 7.89869 19.9387Z" fill="#EA4335"/>
<path d="M9.47463 16.7126H6.32275V18.3959H9.47463V16.7126Z" fill="#EA4335"/>
<path d="M7.89869 8.15885C8.76904 8.15885 9.47463 7.46806 9.47463 6.61594C9.47463 5.7638 8.76904 5.073 7.89869 5.073C7.02832 5.073 6.32275 5.7638 6.32275 6.61594C6.32275 7.46806 7.02832 8.15885 7.89869 8.15885Z" fill="#EA4335"/>
<path d="M7.89869 13.6279C8.76904 13.6279 9.47463 12.9371 9.47463 12.0849C9.47463 11.2328 8.76904 10.542 7.89869 10.542C7.02832 10.542 6.32275 11.2328 6.32275 12.0849C6.32275 12.9371 7.02832 13.6279 7.89869 13.6279Z" fill="#EA4335"/>
<path d="M9.4738 6.61548H6.32275V12.1196H9.4738V6.61548Z" fill="#EA4335"/>
<path d="M19.0706 9.84199C19.9409 9.84199 20.6465 9.1512 20.6465 8.29905C20.6465 7.4469 19.9409 6.7561 19.0706 6.7561C18.2002 6.7561 17.4946 7.4469 17.4946 8.29905C17.4946 9.1512 18.2002 9.84199 19.0706 9.84199Z" fill="#34A853"/>
<path d="M19.0706 8.15885C19.9409 8.15885 20.6465 7.46806 20.6465 6.61594C20.6465 5.7638 19.9409 5.073 19.0706 5.073C18.2002 5.073 17.4946 5.7638 17.4946 6.61594C17.4946 7.46806 18.2002 8.15885 19.0706 8.15885Z" fill="#34A853"/>
<path d="M17.4944 8.29892H20.6463V6.61572H17.4944V8.29892Z" fill="#34A853"/>
<path d="M13.4846 4.93378C14.355 4.93378 15.0606 4.24299 15.0606 3.39084C15.0606 2.5387 14.355 1.8479 13.4846 1.8479C12.6143 1.8479 11.9087 2.5387 11.9087 3.39084C11.9087 4.24299 12.6143 4.93378 13.4846 4.93378Z" fill="#FAB908"/>
<path d="M13.4846 3.25092C14.355 3.25092 15.0606 2.56012 15.0606 1.70798C15.0606 0.855839 14.355 0.165039 13.4846 0.165039C12.6143 0.165039 11.9087 0.855839 11.9087 1.70798C11.9087 2.56012 12.6143 3.25092 13.4846 3.25092Z" fill="#FAB908"/>
<path d="M11.9087 3.39074H15.0606V1.70752H11.9087V3.39074Z" fill="#FAB908"/>
<path d="M13.4846 24.8464C14.355 24.8464 15.0606 24.1556 15.0606 23.3034C15.0606 22.4513 14.355 21.7605 13.4846 21.7605C12.6143 21.7605 11.9087 22.4513 11.9087 23.3034C11.9087 24.1556 12.6143 24.8464 13.4846 24.8464Z" fill="#FAB908"/>
<path d="M13.4846 23.1638C14.355 23.1638 15.0606 22.473 15.0606 21.6208C15.0606 20.7687 14.355 20.0779 13.4846 20.0779C12.6143 20.0779 11.9087 20.7687 11.9087 21.6208C11.9087 22.473 12.6143 23.1638 13.4846 23.1638Z" fill="#FAB908"/>
<path d="M11.9087 23.3036H15.0606V21.6204H11.9087V23.3036Z" fill="#FAB908"/>
<path d="M19.0706 19.9387C19.9409 19.9387 20.6465 19.2479 20.6465 18.3958C20.6465 17.5436 19.9409 16.8528 19.0706 16.8528C18.2002 16.8528 17.4946 17.5436 17.4946 18.3958C17.4946 19.2479 18.2002 19.9387 19.0706 19.9387Z" fill="#34A853"/>
<path d="M19.0706 14.4697C19.9409 14.4697 20.6465 13.7789 20.6465 12.9267C20.6465 12.0746 19.9409 11.3838 19.0706 11.3838C18.2002 11.3838 17.4946 12.0746 17.4946 12.9267C17.4946 13.7789 18.2002 14.4697 19.0706 14.4697Z" fill="#34A853"/>
<path d="M17.4944 18.3951H20.6455V12.926H17.4944V18.3951Z" fill="#34A853"/>
<path d="M13.4846 9.5615C14.355 9.5615 15.0606 8.87064 15.0606 8.01856C15.0606 7.16641 14.355 6.47559 13.4846 6.47559C12.6143 6.47559 11.9087 7.16641 11.9087 8.01856C11.9087 8.87064 12.6143 9.5615 13.4846 9.5615Z" fill="#FAB908"/>
<path d="M13.4846 18.5363C14.355 18.5363 15.0606 17.8455 15.0606 16.9934C15.0606 16.1412 14.355 15.4504 13.4846 15.4504C12.6143 15.4504 11.9087 16.1412 11.9087 16.9934C11.9087 17.8455 12.6143 18.5363 13.4846 18.5363Z" fill="#FAB908"/>
<path fill-rule="evenodd" clip-rule="evenodd" d="M84.106 16.3765H82.7942V6.38062H86.2737C87.1386 6.38062 87.8871 6.66216 88.5192 7.22521C89.1514 7.78831 89.4674 8.49796 89.4674 9.35424C89.4674 10.2105 89.1514 10.9202 88.5192 11.4833C87.8871 12.0464 87.1386 12.3279 86.2737 12.3279H84.106V16.3765ZM84.106 11.0994H86.3019C86.8535 11.0994 87.2956 10.9179 87.6282 10.5549C87.9608 10.1919 88.1274 9.79166 88.1274 9.35424C88.1274 8.91682 87.9608 8.5166 87.6282 8.15364C87.2956 7.79062 86.8535 7.60918 86.3019 7.60918H84.106V11.0994ZM90.5554 10.3595C91.2302 9.66136 92.0903 9.31235 93.1363 9.31235C94.1823 9.31235 95.0423 9.65905 95.7172 10.3524C96.392 11.0458 96.7294 11.9137 96.7294 12.9561C96.7294 13.9985 96.392 14.8664 95.7172 15.5598C95.0423 16.2532 94.1823 16.5999 93.1363 16.5999C92.0903 16.5999 91.2302 16.2532 90.5554 15.5598C89.8806 14.8664 89.5432 13.9985 89.5432 12.9561C89.5432 11.9137 89.8806 11.0482 90.5554 10.3595ZM91.525 14.7571C91.9815 15.2038 92.5186 15.4272 93.1363 15.4272C93.754 15.4272 94.289 15.2015 94.7407 14.7501C95.1918 14.2987 95.4176 13.7007 95.4176 12.9561C95.4176 12.2116 95.1918 11.6136 94.7407 11.1621C94.289 10.7108 93.754 10.4851 93.1363 10.4851C92.5186 10.4851 91.9836 10.7108 91.5318 11.1621C91.0808 11.6136 90.855 12.2116 90.855 12.9561C90.855 13.7007 91.0781 14.301 91.525 14.7571ZM100.683 16.5999C99.7806 16.5999 99.0011 16.2508 98.3449 15.5528C97.6893 14.8548 97.3609 13.9892 97.3609 12.9561C97.3609 11.923 97.6893 11.0575 98.3449 10.3595C99.0011 9.66136 99.7806 9.31235 100.683 9.31235C101.216 9.31235 101.694 9.42408 102.116 9.64742C102.54 9.87082 102.856 10.15 103.065 10.4851H103.122L103.065 9.53575V6.38062H104.377V16.3765H103.122V15.4272H103.065C102.856 15.7622 102.54 16.0414 102.116 16.2649C101.694 16.4882 101.216 16.5999 100.683 16.5999ZM100.898 15.4272C101.515 15.4272 102.041 15.2038 102.473 14.7571C102.905 14.3103 103.122 13.71 103.122 12.9561C103.122 12.2022 102.905 11.6019 102.473 11.1552C102.041 10.7085 101.515 10.4851 100.898 10.4851C100.289 10.4851 99.7662 10.7108 99.3289 11.1621C98.8916 11.6136 98.6727 12.2116 98.6727 12.9561C98.6727 13.7007 98.8916 14.2987 99.3289 14.7501C99.7662 15.2015 100.289 15.4272 100.898 15.4272ZM108.929 16.5999C107.884 16.5999 107.023 16.2532 106.348 15.5598C105.674 14.8664 105.336 13.9985 105.336 12.9561C105.336 11.9137 105.674 11.0458 106.348 10.3524C107.023 9.65905 107.884 9.31235 108.929 9.31235C109.709 9.31235 110.355 9.49848 110.868 9.87082C111.382 10.2431 111.757 10.7131 111.995 11.2808L110.798 11.7694C110.436 10.9132 109.785 10.4851 108.844 10.4851C108.264 10.4851 107.753 10.7178 107.311 11.1831C106.869 11.6485 106.648 12.2394 106.648 12.9561C106.648 13.6728 106.869 14.2638 107.311 14.7291C107.753 15.1945 108.264 15.4272 108.844 15.4272C109.823 15.4272 110.498 14.999 110.868 14.1428L112.038 14.6314C111.8 15.1899 111.418 15.6575 110.89 16.0344C110.362 16.4114 109.709 16.5999 108.929 16.5999ZM115.15 16.5999C114.409 16.5999 113.789 16.3905 113.29 15.9717C112.79 15.5528 112.541 14.999 112.541 14.3103C112.541 13.5657 112.836 12.9817 113.425 12.5583C114.015 12.1348 114.742 11.923 115.607 11.923C116.377 11.923 117.009 12.0626 117.503 12.3419V12.1464C117.503 11.6438 117.328 11.2413 116.976 10.9388C116.624 10.6363 116.191 10.4851 115.678 10.4851C115.298 10.4851 114.953 10.5735 114.644 10.7504C114.336 10.9272 114.124 11.1691 114.01 11.4763L112.812 10.9737C112.974 10.5642 113.292 10.1849 113.767 9.83594C114.243 9.48685 114.87 9.31235 115.649 9.31235C116.543 9.31235 117.285 9.56833 117.874 10.0802C118.464 10.5921 118.758 11.3134 118.758 12.2441V16.3765H117.503V15.4272H117.446C116.923 16.209 116.158 16.5999 115.15 16.5999ZM115.364 15.4272C115.906 15.4272 116.398 15.2294 116.84 14.8338C117.282 14.4383 117.503 13.9706 117.503 13.4308C117.133 13.133 116.576 12.9841 115.835 12.9841C115.198 12.9841 114.718 13.119 114.395 13.3889C114.072 13.6588 113.91 13.9753 113.91 14.3382C113.91 14.6733 114.057 14.9386 114.352 15.134C114.647 15.3295 114.984 15.4272 115.364 15.4272ZM122.598 16.5999C121.819 16.5999 121.174 16.4137 120.666 16.0415C120.157 15.6692 119.784 15.2038 119.546 14.6454L120.715 14.1707C121.087 15.027 121.719 15.4551 122.612 15.4551C123.021 15.4551 123.356 15.3667 123.617 15.1899C123.879 15.013 124.01 14.7803 124.01 14.4918C124.01 14.045 123.691 13.7426 123.054 13.5844L121.642 13.2493C121.195 13.1376 120.773 12.9259 120.373 12.6141C119.975 12.3023 119.775 11.8812 119.775 11.3507C119.775 10.7457 120.048 10.2547 120.594 9.87776C121.141 9.50086 121.79 9.31235 122.541 9.31235C123.159 9.31235 123.71 9.44965 124.195 9.7242C124.68 9.99881 125.027 10.392 125.236 10.9039L124.095 11.3646C123.838 10.7596 123.306 10.4572 122.498 10.4572C122.109 10.4572 121.78 10.5363 121.514 10.6945C121.248 10.8527 121.115 11.0668 121.115 11.3366C121.115 11.7276 121.424 11.9928 122.042 12.1325L123.425 12.4535C124.081 12.6025 124.565 12.8584 124.879 13.2214C125.193 13.5844 125.35 13.9939 125.35 14.4499C125.35 15.0642 125.094 15.5761 124.58 15.9856C124.067 16.3952 123.406 16.5999 122.598 16.5999ZM129.275 16.4882C128.543 16.4882 127.985 16.2974 127.6 15.9158C127.214 15.5342 127.022 14.9944 127.022 14.2964V10.7085H125.796V9.53575H127.022V7.44161H128.334V9.53575H130.045V10.7085H128.334V14.1987C128.334 14.9432 128.648 15.3155 129.275 15.3155C129.513 15.3155 129.713 15.2783 129.874 15.2038L130.33 16.3067C130.045 16.4277 129.693 16.4882 129.275 16.4882ZM133.871 16.5999C133.091 16.5999 132.447 16.4137 131.939 16.0415C131.43 15.6692 131.057 15.2038 130.819 14.6454L131.989 14.1707C132.359 15.027 132.991 15.4551 133.885 15.4551C134.294 15.4551 134.629 15.3667 134.89 15.1899C135.152 15.013 135.282 14.7803 135.282 14.4918C135.282 14.045 134.964 13.7426 134.327 13.5844L132.915 13.2493C132.469 13.1376 132.046 12.9259 131.646 12.6141C131.247 12.3023 131.047 11.8812 131.047 11.3507C131.047 10.7457 131.321 10.2547 131.867 9.87776C132.414 9.50086 133.063 9.31235 133.814 9.31235C134.432 9.31235 134.983 9.44965 135.468 9.7242C135.953 9.99881 136.3 10.392 136.509 10.9039L135.368 11.3646C135.111 10.7596 134.579 10.4572 133.771 10.4572C133.381 10.4572 133.053 10.5363 132.787 10.6945C132.521 10.8527 132.388 11.0668 132.388 11.3366C132.388 11.7276 132.696 11.9928 133.315 12.1325L134.698 12.4535C135.354 12.6025 135.839 12.8584 136.153 13.2214C136.466 13.5844 136.623 13.9939 136.623 14.4499C136.623 15.0642 136.366 15.5761 135.853 15.9856C135.339 16.3952 134.679 16.5999 133.871 16.5999Z" fill="#14142B"/>
<path d="M32.9744 10.8694C32.9744 7.70643 35.6815 5.14331 38.912 5.14331C40.6945 5.14331 41.9645 5.83044 42.9225 6.7248L41.7862 7.8264C41.1067 7.19379 40.182 6.70299 38.912 6.70299C36.5615 6.70299 34.7234 8.55713 34.7234 10.8585C34.7234 13.1599 36.5615 15.014 38.912 15.014C40.4383 15.014 41.3072 14.4141 41.8642 13.8688C42.321 13.4216 42.6217 12.7781 42.7331 11.9055H38.912V10.3459H44.2927C44.3484 10.6294 44.3819 10.9566 44.3819 11.3275C44.3819 12.5054 44.0588 13.956 43.0005 14.9813C41.9645 16.0283 40.6499 16.5846 38.912 16.5846C35.6815 16.5846 32.9744 14.0215 32.9744 10.8694ZM48.6708 9.28794C50.754 9.28794 52.4473 10.8367 52.4473 12.9744C52.4473 15.1013 50.754 16.6609 48.6708 16.6609C46.5876 16.6609 44.8943 15.1013 44.8943 12.9744C44.8943 10.8367 46.5876 9.28794 48.6708 9.28794ZM48.6708 15.1994C49.8071 15.1994 50.7985 14.2833 50.7985 12.9635C50.7985 11.6329 49.8071 10.7276 48.6708 10.7276C47.5233 10.7276 46.5431 11.6329 46.5431 12.9635C46.5431 14.2833 47.5345 15.1994 48.6708 15.1994ZM56.9145 9.28794C58.9976 9.28794 60.691 10.8367 60.691 12.9744C60.691 15.1013 58.9976 16.6609 56.9145 16.6609C54.8313 16.6609 53.138 15.1013 53.138 12.9744C53.138 10.8367 54.8313 9.28794 56.9145 9.28794ZM56.9145 15.1994C58.0507 15.1994 59.0422 14.2833 59.0422 12.9635C59.0422 11.6329 58.0619 10.7276 56.9145 10.7276C55.767 10.7276 54.7867 11.6329 54.7867 12.9635C54.7867 14.2833 55.7782 15.1994 56.9145 15.1994ZM67.0297 9.4079H68.6116V16.0283C68.6116 18.7551 66.974 19.8675 65.0356 19.8675C63.2086 19.8675 62.1057 18.6678 61.6936 17.6862L63.1306 17.0972C63.3869 17.6971 64.0107 18.4061 65.0244 18.4061C66.261 18.4061 67.0297 17.6535 67.0297 16.2465V15.712H66.974C66.6063 16.1592 65.8934 16.5518 64.991 16.5518C63.1084 16.5518 61.3816 14.9376 61.3816 12.8763C61.3816 10.7931 63.1084 9.17885 64.991 9.17885C65.8934 9.17885 66.6063 9.57146 66.974 10.0078H67.0297V9.4079ZM65.1358 15.1013C66.261 15.1013 67.1522 14.1742 67.141 12.8763C67.141 11.5783 66.261 10.6294 65.1358 10.6294C63.9996 10.6294 63.0415 11.5783 63.0415 12.8763C63.0415 14.1633 63.9996 15.1013 65.1358 15.1013ZM69.7368 16.41V5.57958H71.3853V16.41H69.7368ZM75.9197 15.1994C76.766 15.1994 77.3451 14.7958 77.7797 14.1851L79.0611 15.0249C78.6377 15.6248 77.6461 16.6609 75.9197 16.6609C73.7803 16.6609 72.1875 15.0358 72.1875 12.9744C72.1875 10.7821 73.803 9.28794 75.7414 9.28794C77.6908 9.28794 78.6487 10.804 78.9606 11.6329L79.1279 12.0473L74.0922 14.0869C74.4826 14.8177 75.0728 15.1994 75.9197 15.1994ZM75.7972 10.7058C74.9502 10.7058 73.7803 11.4366 73.825 12.8544L77.1895 11.4911C77.0112 11.0221 76.4541 10.7058 75.7972 10.7058Z" fill="#14142B"/>
</svg>
