<svg width="89" height="25" viewBox="0 0 89 25" fill="none" xmlns="http://www.w3.org/2000/svg">
<path d="M12.4499 0.850342C10.1126 0.850342 7.82778 1.53387 5.88438 2.81447C3.94104 4.09514 2.42636 5.91537 1.53186 8.04495C0.637433 10.1746 0.40341 12.518 0.859424 14.7787C1.31537 17.0395 2.44086 19.1162 4.0936 20.7461C5.74633 22.376 7.85205 23.486 10.1444 23.9357C12.4368 24.3854 14.8129 24.1547 16.9723 23.2725C19.1317 22.3904 20.9773 20.8966 22.2759 18.98C23.5744 17.0634 24.2675 14.8101 24.2675 12.505C24.2675 9.41398 23.0224 6.4496 20.8062 4.26394C18.5899 2.07821 15.5842 0.850342 12.4499 0.850342ZM17.873 17.658C17.8227 17.7404 17.7563 17.812 17.6777 17.8689C17.5991 17.9257 17.5098 17.9665 17.4149 17.989C17.3202 18.0115 17.2218 18.0152 17.1256 17.9999C17.0293 17.9846 16.9371 17.9506 16.8544 17.8999C14.0816 16.2256 10.5919 15.8535 6.47982 16.7744C6.38625 16.7964 6.28925 16.7999 6.1943 16.7846C6.09943 16.7693 6.00847 16.7356 5.92694 16.6855C5.84533 16.6353 5.77465 16.5696 5.71897 16.4922C5.66328 16.4149 5.62382 16.3274 5.60271 16.2349C5.58023 16.1421 5.57666 16.0458 5.59199 15.9515C5.60739 15.8573 5.64142 15.767 5.69223 15.6858C5.74303 15.6046 5.80965 15.5341 5.88809 15.4782C5.9666 15.4224 6.0555 15.3824 6.14968 15.3605C10.6485 14.3467 14.5154 14.7838 17.6278 16.6628C17.7938 16.7629 17.9129 16.9239 17.9588 17.1104C18.0048 17.297 17.9739 17.4939 17.873 17.658ZM19.316 14.4862C19.1842 14.6862 18.9795 14.8285 18.7444 14.8839C18.5092 14.9393 18.2614 14.9035 18.0522 14.7838C14.4661 12.811 10.2327 12.3226 6.28175 13.4258C6.15883 13.4935 6.02208 13.5331 5.88163 13.5417C5.74111 13.5504 5.60045 13.528 5.46989 13.4761C5.33934 13.4242 5.22226 13.3442 5.12718 13.2418C5.0321 13.1395 4.96142 13.0174 4.92038 12.8846C4.87933 12.7518 4.86895 12.6117 4.88999 12.4744C4.91103 12.3371 4.96293 12.2063 5.04192 12.0914C5.12092 11.9765 5.22501 11.8805 5.34649 11.8104C5.46804 11.7404 5.60388 11.698 5.74413 11.6865C7.94941 11.0604 10.2593 10.8753 12.5381 11.1421C14.817 11.4088 17.0188 12.122 19.0142 13.2399C19.2169 13.3698 19.3612 13.5716 19.4174 13.8036C19.4736 14.0355 19.4373 14.2799 19.316 14.4862ZM19.4386 11.1842C15.666 8.95185 9.35643 8.74721 5.71588 9.83549C5.43572 9.91941 5.13323 9.89007 4.875 9.75397C4.61678 9.61793 4.42394 9.38628 4.3389 9.10997C4.25385 8.83373 4.28355 8.5354 4.42153 8.2807C4.55944 8.02607 4.79436 7.83587 5.07451 7.75202C9.25268 6.50561 16.1847 6.74745 20.5704 9.30531C20.7958 9.46446 20.9523 9.70144 21.0087 9.9692C21.065 10.2369 21.0171 10.5157 20.8744 10.7503C20.7318 10.9847 20.5048 11.1576 20.2388 11.2346C19.9728 11.3116 19.687 11.2869 19.4386 11.1656V11.1842Z" fill="#1ED760"/>
<path d="M36.5978 10.6581C34.3339 10.1186 33.9283 9.72802 33.9283 8.96529C33.9283 8.20256 34.6357 7.71888 35.6924 7.71888C36.8247 7.76074 37.9123 8.16939 38.7854 8.88158C38.8033 8.89054 38.8226 8.89519 38.8425 8.89519C38.8617 8.89519 38.8817 8.89054 38.8989 8.88158C38.936 8.87453 38.9697 8.85477 38.9931 8.82577L40.1061 7.28171C40.1281 7.25388 40.1405 7.21947 40.1405 7.18405C40.1405 7.14862 40.1281 7.11421 40.1061 7.08638C38.8789 6.09576 37.3341 5.56818 35.7488 5.59813C33.3061 5.59813 31.5991 7.04917 31.5991 9.11412C31.5991 11.3371 33.0703 12.1277 35.6168 12.7323C37.7858 13.2253 38.1536 13.6625 38.1536 14.3787C38.1536 15.0949 37.4084 15.6995 36.2672 15.6995C34.9183 15.6903 33.6258 15.1631 32.6647 14.2299C32.6282 14.2178 32.5884 14.2178 32.5512 14.2299C32.5127 14.2391 32.477 14.2583 32.4474 14.2857L31.1838 15.7274C31.1577 15.755 31.1426 15.7917 31.1426 15.8297C31.1426 15.8678 31.1577 15.9044 31.1838 15.932C32.5567 17.1449 34.3394 17.8083 36.1826 17.7923C38.8136 17.7923 40.5214 16.3692 40.5214 14.1741C40.4835 12.3417 39.3512 11.3185 36.5978 10.6581Z" fill="black"/>
<path d="M46.4443 8.45368C45.8991 8.45033 45.3608 8.57022 44.8706 8.80399C44.3798 9.03776 43.9501 9.37932 43.6146 9.8024V8.77924C43.6125 8.74141 43.5953 8.70592 43.5672 8.68C43.539 8.65407 43.5018 8.63964 43.464 8.63971H41.4174C41.3789 8.63964 41.3417 8.65407 41.3136 8.68C41.2854 8.70592 41.2689 8.74141 41.2661 8.77924V20.127C41.2661 20.1664 41.2819 20.2043 41.3101 20.2322C41.339 20.2601 41.3768 20.2758 41.4174 20.2758H43.4448C43.4847 20.2758 43.5232 20.2601 43.5513 20.2322C43.5795 20.2043 43.596 20.1664 43.596 20.127V16.5646C43.9425 16.9699 44.3763 17.2944 44.8658 17.5147C45.3546 17.735 45.8874 17.8457 46.4251 17.8388C48.5473 17.8388 50.6978 16.2297 50.6978 13.1416C50.6978 10.0535 48.5659 8.45368 46.4443 8.45368ZM48.3301 13.1044C48.3659 13.437 48.3308 13.7733 48.2277 14.0919C48.1245 14.4104 47.9554 14.7045 47.7313 14.9553C47.5065 15.2062 47.2322 15.4084 46.9249 15.5494C46.6169 15.6903 46.2834 15.7667 45.9445 15.7739C45.6042 15.7635 45.2701 15.6854 44.9614 15.5441C44.6527 15.4028 44.3763 15.2014 44.1495 14.9519C43.9219 14.7025 43.748 14.4101 43.638 14.0926C43.5287 13.7751 43.4853 13.4389 43.5108 13.1044C43.4867 12.7706 43.5307 12.4355 43.6414 12.119C43.7514 11.8026 43.9253 11.5114 44.1529 11.263C44.3798 11.0145 44.6561 10.8139 44.9634 10.6732C45.2714 10.5325 45.6049 10.4546 45.9445 10.4442C46.2876 10.45 46.6258 10.5263 46.9372 10.6681C47.2487 10.81 47.5271 11.0143 47.754 11.268C47.9815 11.5218 48.1527 11.8195 48.2565 12.1421C48.3604 12.4646 48.3954 12.805 48.3583 13.1416L48.3301 13.1044Z" fill="black"/>
<path d="M56.2247 8.45348C55.2821 8.4701 54.3657 8.76159 53.5909 9.29116C52.8161 9.8208 52.218 10.5648 51.8715 11.4294C51.525 12.2938 51.4459 13.2403 51.6439 14.1491C51.8426 15.0579 52.3094 15.8885 52.9852 16.5361C53.6617 17.1837 54.5176 17.6192 55.4444 17.7877C56.3711 17.9563 57.3281 17.8504 58.1944 17.4833C59.0599 17.1162 59.7969 16.5044 60.3105 15.725C60.8247 14.9457 61.0928 14.0338 61.0818 13.1042C61.0729 12.4841 60.9409 11.8717 60.692 11.3022C60.4425 10.7327 60.0822 10.2172 59.6312 9.78524C59.1802 9.35319 58.6467 9.01321 58.0624 8.78471C57.478 8.5562 56.8531 8.44363 56.2247 8.45348ZM56.2247 15.8295C55.8761 15.825 55.5324 15.7511 55.2134 15.6121C54.8951 15.4732 54.6077 15.2721 54.3698 15.021C54.132 14.7699 53.9484 14.474 53.8295 14.1509C53.7105 13.8279 53.659 13.4845 53.6782 13.1414C53.6562 12.803 53.705 12.4637 53.8205 12.1445C53.9367 11.8254 54.1182 11.533 54.3533 11.2856C54.5884 11.0381 54.8724 10.8407 55.1873 10.7055C55.5028 10.5704 55.8431 10.5004 56.1869 10.4998C56.5361 10.5019 56.8819 10.5737 57.2023 10.7109C57.5234 10.848 57.8128 11.0477 58.0534 11.2979C58.2934 11.5482 58.4804 11.8438 58.602 12.1669C58.7237 12.4901 58.778 12.8342 58.7615 13.1786C58.7835 13.5198 58.734 13.8618 58.6165 14.1834C58.4989 14.5049 58.3154 14.7992 58.0775 15.0478C57.8389 15.2965 57.5522 15.4941 57.2332 15.6286C56.9142 15.7631 56.5712 15.8314 56.2247 15.8295Z" fill="black"/>
<path d="M66.9197 8.63972H64.6847V6.38881C64.6847 6.35092 64.6702 6.3144 64.6434 6.2867C64.6173 6.25907 64.5815 6.24238 64.543 6.23999H62.5149C62.4751 6.23999 62.4366 6.25565 62.4084 6.28356C62.3802 6.31146 62.3644 6.34935 62.3644 6.38881V8.63972H61.3648C61.3462 8.63972 61.3276 8.64334 61.3105 8.65039C61.2933 8.65736 61.2775 8.66769 61.2644 8.68062C61.2513 8.69355 61.241 8.70893 61.2341 8.7259C61.2266 8.74279 61.2231 8.76098 61.2231 8.77924V10.5C61.2231 10.5379 61.2376 10.5744 61.2637 10.6021C61.2905 10.6298 61.3263 10.6465 61.3648 10.6489H62.308V15.0949C62.308 16.8901 63.2506 17.8017 65.005 17.8017C65.665 17.8201 66.3175 17.6591 66.8915 17.3366C66.9142 17.3258 66.9341 17.3086 66.9472 17.2871C66.961 17.2657 66.9671 17.2408 66.9671 17.2157V15.5786C66.9671 15.5533 66.9616 15.5282 66.95 15.5056C66.9383 15.4829 66.9218 15.4633 66.9011 15.4484C66.8785 15.4344 66.8523 15.4269 66.8255 15.4269C66.7987 15.4269 66.7726 15.4344 66.7499 15.4484C66.3814 15.6324 65.9744 15.728 65.5612 15.7274C64.9109 15.7274 64.6187 15.4391 64.6187 14.7973V10.6489H66.8537C66.8936 10.6489 66.9321 10.6332 66.9603 10.6053C66.9885 10.5774 67.0043 10.5395 67.0043 10.5V8.77924C67.0056 8.75038 66.9981 8.72186 66.983 8.69703C66.9678 8.67227 66.9458 8.65237 66.9197 8.63972Z" fill="black"/>
<path d="M74.7001 8.64947V8.37042C74.7001 7.55195 75.0116 7.18919 75.719 7.18919C76.1123 7.19364 76.5021 7.26607 76.8699 7.40313C76.8905 7.41236 76.9132 7.41715 76.9359 7.41715C76.9586 7.41715 76.9812 7.41236 77.0019 7.40313C77.0197 7.3887 77.0349 7.37023 77.0445 7.34923C77.0541 7.32824 77.0589 7.30533 77.0582 7.28221V5.58003C77.0596 5.5474 77.0507 5.51519 77.0321 5.48831C77.0129 5.46143 76.9861 5.44139 76.9544 5.4312C76.4038 5.28833 75.8352 5.22568 75.2666 5.24517C73.3802 5.24517 72.4369 6.28694 72.4369 8.24957V8.67737H71.4937C71.4566 8.67737 71.4201 8.69208 71.394 8.71827C71.3672 8.74447 71.3521 8.77989 71.3521 8.8169V10.547C71.3521 10.5849 71.3665 10.6214 71.3933 10.6491C71.4194 10.6767 71.4552 10.6934 71.4937 10.6958H72.4369V17.5603C72.4369 17.5973 72.452 17.6328 72.4782 17.6589C72.505 17.6851 72.5407 17.6998 72.5785 17.6998H74.5681C74.6066 17.6999 74.6438 17.6854 74.672 17.6595C74.7001 17.6336 74.7166 17.5981 74.7194 17.5603V10.6493H76.6059L79.5105 17.5045C79.1805 18.23 78.8505 18.3695 78.4071 18.3695C78.0159 18.359 77.6337 18.2536 77.2941 18.0626C77.2748 18.0535 77.2542 18.0487 77.2329 18.0487C77.2116 18.0487 77.1909 18.0535 77.1717 18.0626C77.1524 18.068 77.1352 18.0774 77.1208 18.0903C77.1057 18.1032 77.094 18.1191 77.0864 18.137L76.4546 19.6158C76.4409 19.6495 76.4402 19.687 76.4519 19.7212C76.4643 19.7554 76.4883 19.7842 76.5206 19.8019C77.1799 20.1748 77.93 20.3644 78.6897 20.3507C80.1802 20.3507 81.01 19.6624 81.7456 17.8114L85.2635 8.8448C85.2752 8.82332 85.2813 8.79939 85.2813 8.77504C85.2813 8.75076 85.2752 8.72682 85.2635 8.70528C85.249 8.68722 85.2305 8.67279 85.2092 8.66315C85.1879 8.65343 85.1645 8.64878 85.1411 8.64947H82.9721C82.9418 8.65138 82.9129 8.66096 82.8882 8.6773C82.8634 8.69358 82.8435 8.71608 82.8304 8.74248L80.6703 14.8349L78.3411 8.74248C78.3294 8.71478 78.3102 8.69105 78.2847 8.6745C78.2593 8.65788 78.2297 8.64919 78.1995 8.64947H74.7001Z" fill="black"/>
<path d="M70.1923 8.63989H68.1649C68.0817 8.63989 68.0137 8.70651 68.0137 8.78872V17.5134C68.0137 17.5956 68.0817 17.6623 68.1649 17.6623H70.1923C70.2762 17.6623 70.3436 17.5956 70.3436 17.5134V8.78872C70.3436 8.70651 70.2762 8.63989 70.1923 8.63989Z" fill="black"/>
<path d="M69.1835 4.65921C68.8939 4.65736 68.6099 4.74041 68.3686 4.89769C68.1265 5.05504 67.9381 5.27963 67.826 5.54295C67.7139 5.80634 67.6836 6.09654 67.7387 6.37689C67.7944 6.65724 67.9326 6.91508 68.1368 7.11772C68.3411 7.32029 68.6017 7.45854 68.885 7.51498C69.169 7.57136 69.4633 7.54338 69.7315 7.43453C69.999 7.32562 70.228 7.14077 70.3889 6.90345C70.5506 6.66613 70.6365 6.38695 70.6365 6.10133C70.6372 5.91237 70.6008 5.72506 70.5285 5.55013C70.4557 5.37521 70.3491 5.21622 70.2143 5.08213C70.0788 4.94811 69.9186 4.84173 69.7419 4.76915C69.5644 4.69656 69.3753 4.65921 69.1835 4.65921Z" fill="black"/>
<path d="M86.9525 11.4402C86.7648 11.4414 86.5791 11.4059 86.4058 11.3358C86.2325 11.2656 86.0751 11.1621 85.9423 11.0315C85.8096 10.9007 85.7051 10.7454 85.6336 10.5744C85.5627 10.4034 85.527 10.2201 85.5284 10.0353C85.5284 9.66023 85.679 9.30052 85.9478 9.03529C86.2167 8.77013 86.5819 8.62112 86.9622 8.62112C87.1492 8.61989 87.3349 8.6554 87.5089 8.72552C87.6821 8.79571 87.8396 8.89915 87.9724 9.02981C88.1044 9.16055 88.2096 9.31591 88.2804 9.48694C88.3519 9.6579 88.3877 9.84118 88.3863 10.026C88.3863 10.4011 88.2357 10.7608 87.9668 11.026C87.6973 11.2912 87.3328 11.4402 86.9525 11.4402ZM86.9525 8.76068C86.696 8.75884 86.445 8.83224 86.2312 8.9716C86.0173 9.11095 85.8502 9.30989 85.7512 9.54317C85.6521 9.77646 85.6253 10.0336 85.6748 10.2817C85.7243 10.5297 85.8481 10.7578 86.029 10.9366C86.2105 11.1154 86.4416 11.237 86.6933 11.2858C86.945 11.3347 87.2056 11.3087 87.4422 11.2111C87.6787 11.1134 87.8802 10.9486 88.0219 10.7376C88.1628 10.5266 88.2371 10.2789 88.2357 10.026C88.2371 9.86026 88.2048 9.69594 88.1415 9.54249C88.0776 9.38904 87.984 9.24948 87.8658 9.13182C87.7475 9.01422 87.6065 8.92084 87.4518 8.85714C87.2964 8.79345 87.1299 8.76068 86.9622 8.76068H86.9525ZM87.273 10.1748L87.6698 10.7331H87.3301L86.9711 10.2214H86.6603V10.7331H86.3673V9.2538H87.0378C87.3864 9.2538 87.6223 9.43057 87.6223 9.71899C87.6244 9.8212 87.5921 9.92129 87.5309 10.0037C87.4697 10.0861 87.3823 10.1462 87.2826 10.1748H87.273ZM87.0282 9.505H86.6603V9.9702H87.0282C87.2166 9.9702 87.3301 9.88647 87.3301 9.7376C87.3301 9.58874 87.2262 9.505 87.0378 9.505H87.0282Z" fill="black"/>
</svg>
