<svg width="26" height="26" viewBox="0 0 26 26" fill="none" xmlns="http://www.w3.org/2000/svg">
<circle cx="12.8629" cy="12.953" r="10.7977" fill="url(#paint0_linear_447_2707)"/>
<path d="M14.7502 7.28644C14.9835 6.87908 14.844 6.35879 14.4385 6.12433C14.0331 5.88987 13.5152 6.03004 13.2818 6.43739L12.8748 7.14791L12.4677 6.43739C12.2344 6.03004 11.7165 5.88987 11.311 6.12433C10.9055 6.35879 10.766 6.87908 10.9994 7.28644L11.8974 8.85395L9.05701 13.812H6.76872C6.30088 13.812 5.92163 14.193 5.92163 14.663C5.92163 15.133 6.30088 15.5141 6.76872 15.5141H14.7391C14.8089 15.3296 14.8825 15.0131 14.8043 14.7221C14.6866 14.2848 14.2513 13.812 13.5219 13.812H11.0118L14.7502 7.28644Z" fill="white"/>
<path d="M9.49753 16.4552C9.353 16.2939 9.02919 16.0362 8.74525 15.9514C8.3123 15.8221 7.98409 15.9032 7.8185 15.9739L7.18752 17.0753C6.95415 17.4826 7.09367 18.0029 7.49914 18.2374C7.90461 18.4719 8.42249 18.3317 8.65586 17.9243L9.49753 16.4552Z" fill="white"/>
<path d="M17.6676 15.5141H18.9573C19.4252 15.5141 19.8044 15.133 19.8044 14.663C19.8044 14.193 19.4252 13.812 18.9573 13.812H16.6925L14.1414 9.35887C13.9519 9.5398 13.5885 10.002 13.5336 10.5261C13.463 11.1998 13.5689 11.7672 13.8866 12.3227C14.9545 14.1905 16.0242 16.0574 17.0937 17.9243C17.3271 18.3317 17.845 18.4719 18.2504 18.2374C18.6559 18.0029 18.7954 17.4826 18.562 17.0753L17.6676 15.5141Z" fill="white"/>
<defs>
<linearGradient id="paint0_linear_447_2707" x1="12.8629" y1="2.15527" x2="12.8629" y2="23.7507" gradientUnits="userSpaceOnUse">
<stop stop-color="#2AC9FA"/>
<stop offset="1" stop-color="#1F65EB"/>
</linearGradient>
</defs>
</svg>
