<svg width="26" height="26" viewBox="0 0 26 26" fill="none" xmlns="http://www.w3.org/2000/svg">
<mask id="mask0_447_2710" style="mask-type:alpha" maskUnits="userSpaceOnUse" x="6" y="2" width="19" height="21">
<path d="M24.0896 11.7185C25.0682 12.257 25.0682 13.6474 24.0896 14.1859L8.43905 22.7981C7.48596 23.3225 6.31323 22.642 6.31323 21.5644L6.31323 4.34008C6.31323 3.2625 7.48596 2.58191 8.43905 3.10637L24.0896 11.7185Z" fill="#C4C4C4"/>
</mask>
<g mask="url(#mask0_447_2710)">
<path d="M6.80277 22.629L16.5651 12.8118L6.96355 3.15625C6.5805 3.40181 6.31323 3.82576 6.31323 4.3402V21.5645C6.31323 22.0034 6.50777 22.3764 6.80277 22.629Z" fill="url(#paint0_linear_447_2710)"/>
<path d="M24.0897 11.7193C25.0683 12.2578 25.0683 13.6482 24.0897 14.1867L20.1413 16.3594L16.5652 12.8124L19.959 9.44629L24.0897 11.7193Z" fill="url(#paint1_linear_447_2710)"/>
<path d="M20.1413 16.3595L16.5651 12.8125L6.80273 22.6298C7.23204 22.9973 7.87412 23.1098 8.43904 22.799L20.1413 16.3595Z" fill="url(#paint2_linear_447_2710)"/>
<path d="M6.96362 3.15612L16.5652 12.8116L19.959 9.4455L8.43909 3.10637C7.94101 2.83229 7.38295 2.88732 6.96362 3.15612Z" fill="url(#paint3_linear_447_2710)"/>
</g>
<defs>
<linearGradient id="paint0_linear_447_2710" x1="13.0054" y1="8.9987" x2="6.36804" y2="15.6907" gradientUnits="userSpaceOnUse">
<stop stop-color="#00C3FF"/>
<stop offset="1" stop-color="#1BE2FA"/>
</linearGradient>
<linearGradient id="paint1_linear_447_2710" x1="16.5652" y1="12.8124" x2="25.3932" y2="12.8124" gradientUnits="userSpaceOnUse">
<stop stop-color="#FFCE00"/>
<stop offset="1" stop-color="#FFEA00"/>
</linearGradient>
<linearGradient id="paint2_linear_447_2710" x1="6.59801" y1="23.8281" x2="18.341" y2="14.4135" gradientUnits="userSpaceOnUse">
<stop stop-color="#DE2453"/>
<stop offset="1" stop-color="#FE3944"/>
</linearGradient>
<linearGradient id="paint3_linear_447_2710" x1="7.1676" y1="2.07844" x2="18.3431" y2="11.2064" gradientUnits="userSpaceOnUse">
<stop stop-color="#11D574"/>
<stop offset="1" stop-color="#01F176"/>
</linearGradient>
</defs>
</svg>
