<svg width="220" height="278" viewBox="0 0 220 278" fill="none" xmlns="http://www.w3.org/2000/svg">
<mask id="mask0_923_9" style="mask-type:alpha" maskUnits="userSpaceOnUse" x="0" y="0" width="220" height="278">
<rect width="220" height="278" fill="#D9D9D9"/>
</mask>
<g mask="url(#mask0_923_9)">
<path d="M-75.8377 -27.4458C-75.8377 4.43734 -63.5077 58.1988 -110.068 116.316C-155.546 173.083 -92.9805 -6.67086 -30.1454 -17.7966C43.3047 -30.802 -83.2788 270.331 -89.8058 209.047C-93.4574 174.761 12.7868 -5.20023 42.6718 24.6847C80.6893 62.7022 -18.9995 279.854 -42.2771 276.282C-83.3421 269.982 63.5281 20.198 105.202 41.7109C154.895 67.3637 72.9868 238.554 34.9799 247.736C4.57433 255.082 117.978 89.1795 193.865 127.149" stroke="black" stroke-width="5.48455" stroke-linecap="round"/>
<path d="M199.003 113.807C199.744 112.481 201.772 113.165 201.558 114.669L201.163 117.441C201.034 118.343 201.806 119.117 202.709 118.992L213.482 117.498C214.935 117.297 215.647 119.211 214.415 120.008L206.409 125.184C205.481 125.784 205.608 127.181 206.631 127.603L212.08 129.853C213.333 130.37 213.156 132.197 211.827 132.464L208.26 133.181C207.455 133.343 206.971 134.172 207.228 134.953L208.24 138.034C208.627 139.211 207.377 140.257 206.287 139.669L201.937 137.324C200.821 136.722 199.557 137.828 200.003 139.014L202.396 145.366C202.915 146.744 201.192 147.86 200.147 146.823L193.385 140.116C192.949 139.684 192.279 139.594 191.744 139.896L184.121 144.209C182.851 144.928 181.486 143.428 182.322 142.231L186.811 135.796C187.222 135.207 187.109 134.401 186.552 133.948L178.725 127.576C177.724 126.762 178.3 125.142 179.59 125.142H185.621C186.302 125.142 186.88 124.641 186.978 123.966L187.923 117.411C188.128 115.993 190.096 115.799 190.573 117.15L192.105 121.485C192.498 122.598 194.019 122.727 194.595 121.697L199.003 113.807Z" fill="#CD4631"/>
</g>
</svg>
