<svg width="117" height="149" viewBox="0 0 117 149" fill="none" xmlns="http://www.w3.org/2000/svg">
<path d="M49.1648 92.4693C48.6804 94.2569 48.2014 96.0248 47.719 97.761C47.4976 95.1558 47.2293 92.4481 46.7901 89.7231L46.7774 89.6446L46.7622 89.5665C45.1573 81.3515 40.592 74.3737 32.4861 69.2931C31.9414 68.9489 31.3916 68.5985 30.8357 68.2444C24.3553 64.1156 17.0617 59.4687 7.58282 57.85C19.4904 55.7617 28.674 51.3801 35.8021 45.198C43.3989 38.6095 48.3554 30.2411 51.906 21.2085L51.9108 21.1963L51.9155 21.1841C52.7229 19.0967 53.3601 16.8685 53.9067 14.6866C53.8359 15.8193 53.765 16.9594 53.6941 18.1142L53.6933 18.1269L53.6926 18.1396C53.6133 19.5531 53.5015 21.0554 53.386 22.6072C53.1417 25.8891 52.8809 29.3927 52.877 32.7466C52.5425 44.0257 61.9446 49.9682 70.2176 53.1764L70.2576 53.1919L70.2978 53.2067C71.6209 53.6928 72.9837 54.1308 74.3853 54.5076C73.5801 54.7166 72.7841 54.9342 71.9969 55.1562L71.9371 55.1731L71.8776 55.1915C68.6194 56.2023 64.9503 58.2878 62.7824 61.2053C62.7294 61.2689 62.6761 61.3327 62.6226 61.3968C59.8511 64.7159 56.3983 68.8511 54.7568 73.6663C52.5867 79.8413 50.8436 86.2739 49.1648 92.4693ZM56.6004 4.59238C56.6004 4.59246 56.5977 4.59407 56.5922 4.59694C56.5977 4.59373 56.6004 4.5923 56.6004 4.59238ZM54.5604 3.90494C54.5604 3.90487 54.5605 3.90706 54.5605 3.91162L54.5604 3.90494Z" stroke="#81ADC8" stroke-width="9.59797"/>
<path d="M95.8708 120.582C95.2863 122.246 94.7776 123.973 94.304 125.675C93.4711 122.765 91.6476 120.283 88.7077 118.44C88.498 118.307 88.2849 118.171 88.0681 118.033C86.4077 116.974 84.5322 115.778 82.3165 114.911C85.4055 113.96 87.9652 112.531 90.0855 110.692C92.2504 108.815 93.8691 106.586 95.1238 104.183C95.1111 104.537 95.1034 104.889 95.1028 105.235C94.9747 109.773 98.4625 112.24 101.51 113.572C100.599 114.05 99.7146 114.713 99.082 115.556C99.0573 115.585 99.0323 115.615 99.0071 115.645C97.9699 116.887 96.5543 118.58 95.8708 120.582ZM78.3446 113.604C78.3447 113.604 78.3465 113.607 78.3498 113.612C78.3461 113.607 78.3445 113.604 78.3446 113.604Z" stroke="#CD4631" stroke-width="5.48455"/>
<path d="M33.9232 130.397C34.1516 132.692 35.8427 134.078 37.4579 134.904C37.0762 135.168 36.7214 135.489 36.4369 135.866C36.4206 135.885 36.4041 135.905 36.3873 135.925C35.7529 136.683 34.839 137.776 34.3939 139.079C34.1533 139.763 33.9327 140.468 33.7253 141.174C33.087 139.748 32.0238 138.521 30.5014 137.567C30.3715 137.485 30.2389 137.4 30.1035 137.313C29.2996 136.8 28.3956 136.223 27.3608 135.733C28.9219 135.146 30.2574 134.347 31.3973 133.358C32.4156 132.475 33.2417 131.472 33.9232 130.397Z" stroke="black" stroke-width="4.11341"/>
</svg>
