<svg width="125" height="76" viewBox="0 0 125 76" fill="none" xmlns="http://www.w3.org/2000/svg">
<path d="M114.911 30.6058C111.075 31.6617 107.849 32.6373 104.582 33.4257C99.0469 34.7854 93.52 35.8818 87.7469 34.8225C81.8907 33.7419 77.9365 30.4048 76.4872 24.7585C75.6028 21.2902 75.6617 17.5908 75.4292 13.994C75.3457 12.5872 75.6574 11.1337 75.8404 9.02841C73.5303 11.1515 71.7418 12.8474 69.8844 14.4668C65.3624 18.4432 60.9989 22.6074 56.236 26.257C49.7345 31.2911 43.4279 30.243 38.5958 23.5278C36.7028 20.8931 35.4358 17.7695 33.9114 14.8456C33.4583 13.9635 33.1371 13.0267 32.678 11.9369C30.0561 17.0168 27.6361 21.8829 25.0436 26.6166C18.9851 37.6594 9.62448 34.8304 4.21815 27.9392C2.77186 26.0965 1.75004 23.8608 0.734725 21.7152C0.104165 20.2574 0.31271 18.6302 1.93016 17.9519C3.38804 17.3213 4.49191 18.3103 5.28966 19.575C6.09446 20.812 6.82272 22.1179 7.74585 23.2377C8.82745 24.5452 9.93673 25.8599 11.255 26.933C14.9682 29.9434 18.0457 29.6668 20.8628 25.7864C22.8571 23.0522 24.4579 20.0112 26.0723 17.0328C27.5749 14.2616 28.9531 11.3998 30.3314 8.53797C31.0588 7.07261 31.8416 5.62135 33.6641 5.52597C35.757 5.41108 36.5737 7.06381 37.3356 8.58466C38.3173 10.5153 39.0004 12.5762 40.0863 14.445C41.4262 16.8207 42.8285 19.1828 44.5021 21.2899C46.782 24.1412 48.8585 24.5527 51.992 22.6691C54.9865 20.8679 57.9473 18.8519 60.6184 16.585C66.3155 11.6996 71.8194 6.64705 77.3303 1.5668C78.6384 0.367426 79.9167 -0.367896 81.5758 0.408911C83.1589 1.13686 83.339 2.62727 83.1723 4.20612C82.8681 7.01754 82.4391 9.85608 82.2804 12.6751C82.151 15.1479 82.0629 17.6901 82.384 20.1303C83.2264 26.6537 86.4002 29.4676 92.9311 29.9832C97.8413 30.3803 102.673 29.8141 107.424 28.6378C110.851 27.8016 114.216 26.7436 117.587 25.7756C119.37 25.2574 121.216 24.7256 122.586 26.5195C123.86 28.2298 123.117 29.9861 122.306 31.6659C121.949 32.3709 121.489 33.02 121.056 33.6761C120.163 34.9813 119.339 36.3631 118.322 37.5777C110.818 46.66 112.056 56.0259 117.471 65.4251C118.474 67.1549 120.026 68.5825 121.377 70.1061C122.039 70.8643 122.951 71.4506 123.508 72.2707C123.921 72.8477 124.276 73.8817 124.004 74.3723C123.717 74.9183 122.69 75.246 122.038 75.3746C120.617 75.6312 118.943 75.0275 117.852 74.2187C115.698 72.6082 113.566 70.7969 111.989 68.6556C108.478 63.928 106.606 58.439 105.705 52.6082C104.938 47.6371 106.352 43.1335 108.969 38.9957C110.714 36.3158 112.652 33.803 114.911 30.6058Z" fill="black"/>
</svg>
